<?xml version="1.0" encoding="UTF-8" standalone="no"?>
<!-- Generator: Adobe Illustrator 17.0.0, SVG Export Plug-In . SVG Version: 6.00 Build 0)  -->

<svg
   xmlns:dc="http://purl.org/dc/elements/1.1/"
   xmlns:cc="http://creativecommons.org/ns#"
   xmlns:rdf="http://www.w3.org/1999/02/22-rdf-syntax-ns#"
   xmlns:svg="http://www.w3.org/2000/svg"
   xmlns="http://www.w3.org/2000/svg"
   xmlns:sodipodi="http://sodipodi.sourceforge.net/DTD/sodipodi-0.dtd"
   xmlns:inkscape="http://www.inkscape.org/namespaces/inkscape"
   version="1.1"
   id="Calque_1"
   x="0px"
   y="0px"
   width="921.55438"
   height="301.11771"
   viewBox="0 0 921.55436 301.11771"
   enable-background="new 0 0 849.072 361.086"
   xml:space="preserve"
   inkscape:version="0.91 r13725"
   sodipodi:docname="CRIGE-2021-logo-vector.svg"><metadata
     id="metadata83"><rdf:RDF><cc:Work
         rdf:about=""><dc:format>image/svg+xml</dc:format><dc:type
           rdf:resource="http://purl.org/dc/dcmitype/StillImage" /><dc:title></dc:title></cc:Work></rdf:RDF></metadata><defs
     id="defs81" /><sodipodi:namedview
     pagecolor="#ffffff"
     bordercolor="#666666"
     borderopacity="1"
     objecttolerance="10"
     gridtolerance="10"
     guidetolerance="10"
     inkscape:pageopacity="0"
     inkscape:pageshadow="2"
     inkscape:window-width="1920"
     inkscape:window-height="1053"
     id="namedview79"
     showgrid="false"
     inkscape:zoom="1.0859706"
     inkscape:cx="446.70946"
     inkscape:cy="98.08439"
     inkscape:window-x="0"
     inkscape:window-y="0"
     inkscape:window-maximized="1"
     inkscape:current-layer="Calque_1"
     fit-margin-top="0"
     fit-margin-left="0"
     fit-margin-right="0"
     fit-margin-bottom="0" /><g
     id="g3"
     transform="translate(-27.965094,-29.226179)"><path
       d="m 315.538,216.649 c -4,3.842 -8.46,6.954 -13.313,9.417 -0.19,0.097 -0.38,0.194 -0.57,0.288 -6.135,3.025 -12.906,5 -20.333,5.837 -5.564,0.627 -11.478,0.636 -17.736,0.028 -26.711,-2.609 -39.584,-19.434 -52.035,-35.704 -9.928,-12.973 -20.194,-26.384 -37.466,-33.449 -9.753,-3.987 -20.757,-5.913 -31.398,-7.775 -24.228,-4.24 -49.264,-8.62 -63.108,-37.198 -6.864,-14.175 -5.785,-36.12 2.388,-54.831 -2.435,2.049 -4.799,4.173 -7.096,6.367 -2.028,5.931 -3.359,12.164 -4.103,18.35 0.714,-6.119 2.043,-12.329 4.103,-18.35 -5.799,5.538 -11.131,11.533 -15.979,17.904 -9.691,14.763 -10.176,26.269 -9.188,38.27 1.519,18.417 11.248,36.525 24.791,46.128 8.444,5.991 17.111,9.151 26.289,12.496 1.467,0.537 2.934,1.072 4.4,1.618 18.761,7.001 38.164,14.239 51.846,38.298 5.949,10.463 9.558,20.296 12.743,28.974 8.225,22.403 15.595,36.752 48.529,47.061 19.379,6.065 38.05,4.843 55.826,-3.55 30.855,-20.366 46.547,-51.884 51.939,-81.336 1.475,-5.943 2.566,-12.018 3.309,-18.185 -3.641,7.31 -8.18,13.911 -13.838,19.342"
       id="path5"
       inkscape:connector-curvature="0"
       style="fill:#0ca8a8" /><path
       d="m 251.282,311.089 c -3.393,0.382 -6.817,0.515 -10.264,0.453 -0.205,0.001 -0.412,-0.014 -0.616,-0.015 -0.895,-0.023 -1.789,-0.046 -2.687,-0.098 -7.205,-0.272 -14.433,-1.462 -21.623,-3.713 -11.619,-3.637 -20.082,-7.778 -26.506,-12.463 -14.826,-10.129 -20.692,-23.025 -26.705,-39.405 -3.087,-8.41 -6.585,-17.94 -12.234,-27.875 -12.363,-21.74 -30.496,-28.506 -48.032,-35.049 -1.449,-0.541 -2.898,-1.071 -4.347,-1.597 -9.228,-3.366 -18.77,-6.846 -28.019,-13.405 -15.236,-10.807 -26.173,-31.03 -27.86,-51.515 -0.324,-3.946 -0.181,-8.143 0.334,-12.416 -2.132,4.46 -4.051,9.031 -5.743,13.704 -7.671,21.186 -10.736,44.406 -8.043,68.313 9.349,83.008 84.22,142.721 167.229,133.372 14.425,-1.625 28.124,-5.269 40.903,-10.549 5.743,-2.374 11.313,-5.056 16.653,-8.08 -0.812,0.116 -1.623,0.246 -2.44,0.338"
       id="path7"
       inkscape:connector-curvature="0"
       style="fill:#964073" /><path
       d="m 329.829,160.995 c -1.553,-12.724 -4.682,-24.862 -9.107,-36.291 -8.538,-22.859 -22.265,-42.388 -39.975,-58.607 -22.563,-20.664 -50.344,-32.549 -80.085,-36.859 -1.86,-0.205 -2.003,2.317 -0.129,2.858 31.495,8.548 51.096,19.636 74.403,42.769 23.485,23.309 36.042,57.795 23.093,76.969 -6.364,7.244 -14.905,11.965 -25.398,13.099 -1.504,0.163 -3.029,0.288 -4.579,0.316 -18.685,0.276 -25.622,-8.966 -34.406,-20.669 -2.228,-2.966 -4.474,-5.961 -7.066,-9.051 -13.423,-16.009 -29.133,-22.894 -50.943,-22.319 -19.171,0.501 -42.708,-0.592 -54.675,-13.613 -6.516,-7.098 -8.986,-16.818 -7.55,-29.723 1.174,-10.556 6.715,-22.243 15.353,-32.955 -2.24,0.799 -4.455,1.645 -6.642,2.544 -9.104,3.741 -17.727,8.326 -25.785,13.657 -2.343,2.97 -4.501,6.376 -6.421,10.207 -8.871,17.727 -10.465,39.39 -3.871,52.682 12.439,25.082 33.578,28.577 58.056,32.625 11.059,1.83 22.478,3.717 33.004,7.906 19.185,7.641 30.198,21.753 40.848,35.402 12.7,16.283 23.671,30.343 47.222,32.421 19.324,1.697 34.808,-3.01 46.029,-13.99 9.819,-9.605 15.883,-23.311 19.529,-38.141 -0.177,-3.727 -0.446,-7.471 -0.905,-11.237 z"
       id="path9"
       inkscape:connector-curvature="0"
       style="fill:#e8c26f" /><path
       d="m 322.87,228.883 c -26.91,28.698 -65.141,46.652 -107.587,46.652 -13.174,0 -25.935,-1.751 -38.089,-4.992 7.067,12.987 17.524,22.454 41.094,29.832 8.09,2.532 16.06,3.794 23.89,3.794 10.925,0 21.581,-2.456 31.936,-7.344 26.211,-17.3 41.448,-42.649 48.756,-67.942"
       id="path11"
       inkscape:connector-curvature="0"
       style="fill:#097979" /><path
       d="m 74.858,69.626 c -5.799,5.538 -11.131,11.533 -15.979,17.904 -9.691,14.763 -10.176,26.269 -9.188,38.269 1.263,15.315 8.205,30.412 18.295,40.585 -10.084,-10.175 -17.02,-25.27 -18.283,-40.58 -0.987,-12.001 -0.503,-23.507 9.188,-38.27 4.842,-6.363 10.166,-12.351 15.957,-17.883 0.004,-0.008 0.007,-0.017 0.01,-0.025 m 6.021,-3.75 c -0.937,2.366 -1.763,4.776 -2.476,7.205 0.074,-0.184 0.149,-0.369 0.224,-0.553 0.674,-2.239 1.409,-4.464 2.252,-6.652 m 1.075,-2.617 c -2.435,2.049 -4.799,4.173 -7.096,6.367 -0.003,0.009 -0.006,0.017 -0.009,0.026 0.007,-0.007 0.015,-0.014 0.022,-0.021 -2.059,6.022 -3.389,12.232 -4.103,18.35 0.744,-6.186 2.074,-12.419 4.103,-18.35 2.289,-2.187 4.645,-4.304 7.072,-6.347 0.003,-0.009 0.007,-0.017 0.011,-0.025"
       id="path13"
       inkscape:connector-curvature="0"
       style="fill:#b7b7b7" /><path
       d="m 81.943,63.284 c -2.427,2.043 -4.782,4.16 -7.072,6.347 -2.028,5.931 -3.359,12.164 -4.103,18.35 0.714,-6.119 2.043,-12.329 4.103,-18.35 -0.007,0.007 -0.015,0.014 -0.022,0.021 -2.023,5.923 -3.351,12.147 -4.094,18.324 0.713,-6.11 2.039,-12.311 4.094,-18.324 -5.791,5.532 -11.115,11.52 -15.957,17.883 -9.691,14.763 -10.176,26.269 -9.188,38.27 1.263,15.31 8.198,30.405 18.283,40.58 2.021,2.038 4.169,3.878 6.422,5.483 -4.303,-13.847 -6.622,-28.567 -6.622,-43.829 0,-19.431 3.789,-37.968 10.617,-54.956 0.713,-2.43 1.54,-4.839 2.476,-7.205 0.335,-0.872 0.689,-1.737 1.063,-2.594"
       id="path15"
       inkscape:connector-curvature="0"
       style="fill:#097979" /><path
       d="m 206.779,304.433 c 2.859,1.137 5.954,2.231 9.313,3.282 7.19,2.251 14.418,3.441 21.623,3.713 0.898,0.053 1.793,0.075 2.687,0.098 0.198,10e-4 0.398,0.015 0.598,0.015 0.006,0 0.012,0 0.018,0 0.538,0.01 1.075,0.015 1.612,0.015 2.903,0 5.789,-0.145 8.652,-0.467 0.807,-0.091 1.608,-0.218 2.411,-0.334 0.006,-0.003 0.011,-0.006 0.017,-0.009 -0.813,0.117 -1.624,0.247 -2.441,0.339 -2.864,0.323 -5.75,0.467 -8.652,0.467 -0.537,0 -1.074,-0.005 -1.611,-0.015 -0.006,0 -0.012,0 -0.018,0 -0.199,0 -0.399,-0.014 -0.598,-0.015 -0.895,-0.023 -1.789,-0.046 -2.687,-0.098 -7.205,-0.272 -14.433,-1.462 -21.623,-3.713 -3.355,-1.051 -6.446,-2.143 -9.301,-3.278 M 72.172,179.24 c 2.062,1.365 4.136,2.588 6.216,3.702 -0.004,-0.01 -0.007,-0.018 -0.011,-0.027 -2.076,-1.112 -4.146,-2.32 -6.205,-3.675 M 42.711,113.985 c -2.132,4.46 -4.051,9.031 -5.743,13.704 -7.671,21.187 -10.736,44.406 -8.043,68.313 6.445,57.225 44.047,103.384 93.971,123.471 C 72.979,299.383 35.382,253.227 28.938,196.007 26.245,172.1 29.31,148.88 36.981,127.694 c 1.687,-4.66 3.6,-9.218 5.725,-13.666 10e-4,-0.014 0.003,-0.028 0.005,-0.043"
       id="path17"
       inkscape:connector-curvature="0"
       style="fill:#b7b7b7" /><path
       d="m 42.706,114.028 c -2.125,4.448 -4.037,9.006 -5.725,13.666 -7.671,21.186 -10.736,44.406 -8.043,68.313 6.445,57.22 44.041,103.376 93.958,123.466 17.472,7.03 36.453,10.864 56.142,10.864 5.658,0 11.36,-0.316 17.116,-0.964 14.425,-1.625 28.124,-5.269 40.903,-10.549 5.737,-2.371 11.302,-5.05 16.637,-8.07 -0.803,0.116 -1.605,0.243 -2.411,0.334 -2.864,0.323 -5.75,0.467 -8.652,0.467 -0.537,0 -1.074,-0.005 -1.612,-0.015 -0.006,0 -0.012,0 -0.018,0 -0.199,0 -0.399,-0.014 -0.598,-0.015 -0.895,-0.023 -1.789,-0.046 -2.687,-0.098 -7.205,-0.272 -14.433,-1.462 -21.623,-3.713 -3.359,-1.052 -6.455,-2.145 -9.313,-3.282 -7.035,-2.797 -12.636,-5.854 -17.205,-9.186 -11.083,-7.572 -17.159,-16.692 -22.032,-27.657 -40.624,-13.896 -73.237,-45.007 -89.153,-84.649 -2.08,-1.114 -4.154,-2.337 -6.216,-3.702 -0.647,-0.426 -1.292,-0.866 -1.936,-1.323 -15.236,-10.807 -26.173,-31.03 -27.86,-51.515 -0.325,-3.931 -0.184,-8.113 0.328,-12.372"
       id="path19"
       inkscape:connector-curvature="0"
       style="fill:#6c2e53" /></g><path
     d="m 646.74058,28.806518 c 13.8433,-0.01844 24.07425,12.435232 21.57384,26.21285 -1.33202,7.341073 -4.39013,13.985027 -8.49334,20.100091 -3.43375,5.117204 -7.28461,9.959017 -11.04561,14.849225 -1.25135,1.626996 -2.24,1.624691 -3.52362,0.145184 -7.61301,-8.774489 -14.4828,-18.03869 -18.37054,-29.152275 -1.96345,-5.611525 -2.76544,-11.322145 -0.83309,-17.158362 2.94519,-8.898933 11.31408,-14.984038 20.69236,-14.996713 z m 0.10601,32.924787 c 5.67029,-0.02766 10.27589,-4.657451 10.24016,-10.292021 -0.0358,-5.558521 -4.77613,-10.224037 -10.38535,-10.22519 -5.42024,0 -10.1503,4.796875 -10.14338,10.28626 0.007,5.662225 4.6298,10.258606 10.28857,10.230951 z"
     id="path21"
     inkscape:connector-curvature="0"
     style="fill:#e8c26f" /><g
     id="g23"
     transform="matrix(1.1522639,0,0,1.1522639,-29.460864,-4.771604)"><g
       id="g25"><path
         d="m 434.277,199.115 c -10.04,0 -19.18,-1.608 -27.432,-4.829 -8.248,-3.216 -15.33,-7.909 -21.241,-14.079 -5.911,-6.17 -10.486,-13.784 -13.714,-22.835 -3.232,-9.055 -4.848,-19.415 -4.848,-31.084 0,-11.669 1.82,-22.029 5.466,-31.079 3.641,-9.055 8.559,-16.665 14.745,-22.835 6.186,-6.165 13.407,-10.863 21.655,-14.083 8.252,-3.216 17.048,-4.829 26.401,-4.829 5.912,0 11.238,0.403 15.984,1.209 4.741,0.806 8.865,1.744 12.371,2.818 3.506,1.074 6.362,2.147 8.563,3.216 2.197,1.078 3.711,1.88 4.537,2.414 l -5.777,16.095 c -1.235,-0.806 -3.028,-1.676 -5.364,-2.614 -2.336,-0.938 -4.983,-1.88 -7.937,-2.818 -2.958,-0.938 -6.19,-1.708 -9.697,-2.315 -3.506,-0.602 -7.045,-0.906 -10.621,-0.906 -7.565,0 -14.368,1.277 -20.419,3.823 -6.051,2.55 -11.206,6.238 -15.464,11.066 -4.268,4.829 -7.528,10.695 -9.799,17.603 -2.271,6.908 -3.404,14.654 -3.404,23.234 0,8.317 0.998,15.895 2.991,22.735 1.992,6.84 4.983,12.706 8.972,17.603 3.984,4.897 8.972,8.684 14.954,11.365 5.981,2.686 12.957,4.022 20.935,4.022 9.209,0 16.839,-0.938 22.89,-2.818 6.051,-1.875 10.588,-3.551 13.611,-5.028 l 5.159,16.095 c -0.966,0.675 -2.684,1.508 -5.159,2.514 -2.475,1.006 -5.568,1.98 -9.279,2.917 -3.715,0.938 -8.043,1.744 -12.994,2.414 -4.948,0.674 -10.312,1.009 -16.085,1.009 z"
         id="path27"
         inkscape:connector-curvature="0"
         style="fill:#121212" /><path
         d="m 595.846,196.098 -19.18,0 0,-104.612 19.18,0 0,104.612 z"
         id="path29"
         inkscape:connector-curvature="0"
         style="fill:#121212" /><path
         d="m 691.846,185.639 c -1.649,1.074 -4.848,2.446 -9.59,4.122 -4.746,1.681 -10.282,2.514 -16.602,2.514 -6.464,0 -12.548,-1.006 -18.255,-3.017 -5.707,-2.011 -10.69,-5.128 -14.949,-9.354 -4.268,-4.226 -7.635,-9.485 -10.11,-15.791 -2.475,-6.306 -3.711,-13.811 -3.711,-22.531 0,-7.646 1.166,-14.654 3.506,-21.023 2.336,-6.369 5.74,-11.873 10.207,-16.498 4.468,-4.629 9.933,-8.249 16.398,-10.863 6.46,-2.618 13.746,-3.923 21.864,-3.923 8.935,0 16.737,0.639 23.406,1.912 6.669,1.273 12.274,2.446 16.811,3.52 l 0,93.346 c 0,16.09 -4.263,27.759 -12.789,35.002 -8.526,7.243 -21.446,10.863 -38.772,10.863 -6.738,0 -13.096,-0.535 -19.077,-1.608 -5.981,-1.074 -11.173,-2.346 -15.571,-3.823 l 3.506,-16.294 c 3.845,1.472 8.559,2.781 14.127,3.923 5.568,1.137 11.378,1.708 17.429,1.708 11.41,0 19.625,-2.211 24.645,-6.636 5.015,-4.426 7.528,-11.47 7.528,-21.123 l 0,-4.426 z m -0.204,-77.655 c -1.927,-0.535 -4.509,-1.037 -7.737,-1.508 -3.232,-0.471 -7.598,-0.707 -13.096,-0.707 -10.314,0 -18.251,3.289 -23.819,9.861 -5.573,6.573 -8.354,15.288 -8.354,26.151 0,6.034 0.789,11.198 2.373,15.492 1.579,4.294 3.711,7.846 6.39,10.659 2.684,2.818 5.777,4.901 9.283,6.238 3.506,1.341 7.115,2.011 10.825,2.011 5.085,0 9.762,-0.702 14.025,-2.111 4.263,-1.409 7.635,-3.049 10.11,-4.928 l 0,-61.158 z"
         id="path31"
         inkscape:connector-curvature="0"
         style="fill:#121212" /><path
         d="m 731.709,143.996 c 0,-9.254 1.375,-17.336 4.124,-24.244 2.749,-6.908 6.395,-12.638 10.932,-17.2 4.537,-4.557 9.762,-7.977 15.673,-10.26 5.912,-2.279 11.963,-3.42 18.149,-3.42 14.438,0 25.505,4.394 33.209,13.177 7.695,8.783 11.549,22.164 11.549,40.134 0,0.802 0,1.844 0,3.117 0,1.277 -0.074,2.451 -0.209,3.52 l -73.421,0 c 0.822,10.867 4.054,19.111 9.692,24.746 5.638,5.631 14.438,8.448 26.401,8.448 6.734,0 12.404,-0.566 17.015,-1.708 4.602,-1.137 8.076,-2.247 10.416,-3.32 l 2.68,15.691 c -2.341,1.205 -6.432,2.482 -12.274,3.823 -5.842,1.336 -12.474,2.011 -19.899,2.011 -9.353,0 -17.429,-1.377 -24.237,-4.122 -6.803,-2.75 -12.409,-6.541 -16.806,-11.37 -4.402,-4.829 -7.667,-10.559 -9.799,-17.2 -2.131,-6.635 -3.195,-13.909 -3.195,-21.823 z m 73.63,-10.26 c 0.135,-8.453 -2.029,-15.392 -6.497,-20.824 -4.472,-5.431 -10.621,-8.149 -18.46,-8.149 -4.402,0 -8.285,0.843 -11.652,2.514 -3.372,1.681 -6.223,3.859 -8.559,6.541 -2.341,2.682 -4.161,5.766 -5.466,9.254 -1.31,3.488 -2.169,7.039 -2.577,10.663 l 53.211,0 z"
         id="path33"
         inkscape:connector-curvature="0"
         style="fill:#121212" /></g><path
       d="m 553.294,91.386 c -1.723,-0.335 -3.608,-0.671 -5.67,-1.006 -2.062,-0.335 -4.161,-0.603 -6.293,-0.806 -2.132,-0.199 -4.022,-0.299 -5.67,-0.299 -8.387,0 -15.952,0.702 -22.686,2.111 -2.528,0.528 -4.849,1.076 -7.067,1.632 -5.772,-3.047 -10.403,-3.273 -10.403,-3.273 l 0.557,17.773 0,88.58 19.18,0 0,-87.915 c 1.101,-0.267 3.404,-0.77 6.91,-1.508 3.506,-0.734 7.045,-1.105 10.621,-1.105 5.499,0 10.003,0.371 13.509,1.105 3.506,0.738 6.014,1.377 7.528,1.912 l 3.302,-16.294 c -0.827,-0.268 -2.099,-0.571 -3.818,-0.907 z"
       id="path35"
       inkscape:connector-curvature="0"
       style="fill:#121212" /></g></svg>