<?xml version="1.0" encoding="UTF-8" standalone="no"?>
<svg
   id="Calque_1"
   viewBox="0 0 25755.95 11979.512"
   version="1.1"
   sodipodi:docname="CSTB_logo_BDNB.svg"
   width="172"
   height="80"
   inkscape:version="1.1.2 (0a00cf5339, 2022-02-04)"
   inkscape:export-filename="/data/GITHUB_PERSO/QGIS-conf-fr-website/images/CSTB_logo_BDNB.png"
   inkscape:export-xdpi="100.47"
   inkscape:export-ydpi="100.47"
   xmlns:inkscape="http://www.inkscape.org/namespaces/inkscape"
   xmlns:sodipodi="http://sodipodi.sourceforge.net/DTD/sodipodi-0.dtd"
   xmlns="http://www.w3.org/2000/svg"
   xmlns:svg="http://www.w3.org/2000/svg">
  <sodipodi:namedview
     id="namedview111"
     pagecolor="#ffffff"
     bordercolor="#666666"
     borderopacity="1.0"
     inkscape:pageshadow="2"
     inkscape:pageopacity="0.0"
     inkscape:pagecheckerboard="0"
     showgrid="false"
     scale-x="150"
     fit-margin-top="0"
     fit-margin-left="0"
     fit-margin-right="0"
     fit-margin-bottom="0"
     inkscape:zoom="8"
     inkscape:cx="158.1875"
     inkscape:cy="72"
     inkscape:window-width="1398"
     inkscape:window-height="826"
     inkscape:window-x="12"
     inkscape:window-y="10"
     inkscape:window-maximized="0"
     inkscape:current-layer="Calque_1"
     viewbox-width="400"
     viewbox-height="200" />
  <defs
     id="defs4">
    <style
       id="style2">.cls-1{fill:none;}.cls-2{fill:#ef7c53;}.cls-3{fill:#1d1d1b;}.cls-4{fill:#3895ae;}</style>
  </defs>
  <rect
     class="cls-4"
     x="18632.635"
     y="1682.4589"
     width="1253.1085"
     height="6346.2842"
     id="rect6"
     style="stroke-width:53.8277" />
  <rect
     class="cls-2"
     x="-17697.109"
     y="-5122.5952"
     width="1271.41"
     height="3420.2112"
     transform="scale(-1)"
     id="rect8"
     style="stroke-width:53.8277" />
  <rect
     class="cls-2"
     x="6945.7451"
     y="-4636.897"
     width="1127.1517"
     height="3085.9412"
     transform="rotate(90)"
     id="rect10"
     style="stroke-width:53.8277" />
  <rect
     class="cls-4"
     x="6945.1929"
     y="-21718.574"
     width="1127.1517"
     height="3085.9412"
     transform="rotate(90)"
     id="rect12"
     style="stroke-width:53.8277" />
  <rect
     class="cls-2"
     x="-2678.1077"
     y="-7938.3247"
     width="1127.1517"
     height="3085.9412"
     transform="scale(-1)"
     id="rect14"
     style="stroke-width:53.8277" />
  <path
     class="cls-3"
     d="m 6171.5239,5375.5889 c -73.2057,-131.878 -167.4043,-254.6051 -276.1361,-372.4877 -113.0381,-113.0381 -245.4542,-207.2367 -401.016,-283.1336 273.4444,-131.8779 471.5303,-325.6575 599.1019,-575.418 127.0334,-245.4542 188.3968,-490.3703 188.3968,-721.8292 0,-231.4592 -35.5261,-453.2293 -110.8848,-660.4658 -73.2057,-212.081 -186.2438,-396.1716 -336.9616,-561.4226 -153.4087,-160.4067 -344.4968,-287.9783 -575.4175,-377.3321 -233.6122,-94.1986 -509.2101,-141.567 -830.0231,-141.567 H 1550.956 v 3769.0147 h 2634.3263 c 266.4471,0 478.5283,71.0524 629.784,207.7749 155.5622,136.7224 233.6122,320.8129 233.6122,542.5831 0,221.7699 -73.2055,401.0162 -219.6169,537.7384 -143.72,131.8779 -358.4924,198.0861 -643.7793,198.0861 v 1141.6852 h 360.6457 c 304.1264,0 570.5735,-51.6746 799.3412,-155.5622 228.7674,-103.8873 422.0088,-240.6097 575.4175,-410.1668 153.409,-174.4018 271.2916,-372.4876 351.4948,-603.9468 80.2033,-226.6144 122.7272,-471.5305 122.7272,-730.9798 0,-122.7273 -18.8396,-254.605 -56.519,-391.3274 -37.6794,-141.5667 -92.0453,-278.2891 -167.404,-410.167 z M 4754.241,4111.1765 c -150.7175,127.5716 -358.4923,193.2414 -622.7864,193.2414 H 2822.3654 v -1481.338 h 1290.2497 c 297.1289,0 514.0543,66.2079 653.468,198.0858 138.8754,127.5716 209.9281,315.9685 209.9281,566.2672 0,216.9257 -75.3588,391.3275 -221.7702,523.7436 z"
     id="path16"
     style="stroke-width:53.8277" />
  <path
     class="cls-1"
     d="m 5649.6003,2058.1944 c -73.2055,-131.8777 -167.4038,-254.6048 -276.1356,-372.4874 -113.0384,-113.0381 -245.4543,-207.2367 -401.0165,-283.1336 273.4448,-131.8779 471.5307,-325.6577 599.1021,-575.41801 127.0332,-245.4543 188.3968,-490.3703 188.3968,-721.82937 0,-231.45907 -35.5263,-453.22914 -110.885,-660.46574 -73.2057,-212.08106 -186.2436,-396.17176 -336.9611,-561.42268 -153.409,-160.4066 -344.4973,-287.9782 -575.418,-377.3322 -233.6122,-94.1984 -509.2099,-141.5668 -830.0229,-141.5668 H 1029.0324 v 3769.0146 h 2634.3265 c 266.4471,0 478.5283,71.0526 629.784,207.775 155.562,136.7222 233.6122,320.8129 233.6122,542.5829 0,221.7701 -73.2057,401.0162 -219.6169,537.7386 -143.72,131.8779 -358.4926,198.0859 -643.7793,198.0859 v 1141.6852 h 360.6457 c 304.1262,0 570.5732,-51.6745 799.3409,-155.562 228.7677,-103.8873 422.0091,-240.6097 575.4181,-410.167 153.4087,-174.4016 271.2913,-372.4874 351.4945,-603.9466 80.2033,-226.6147 122.7272,-471.5305 122.7272,-730.98 0,-122.7271 -18.8396,-254.6049 -56.5192,-391.3271 -37.6794,-141.567 -92.0453,-278.2891 -167.404,-410.1671 z M 4232.3176,793.78209 c -150.7175,127.5716 -358.4923,193.2413 -622.7864,193.2413 H 2300.442 V -494.31443 h 1290.2497 c 297.1286,0 514.0543,66.20806 653.468,198.08589 138.8754,127.57161 209.9279,315.968525 209.9279,566.26723 0,216.9256 -75.3588,391.3273 -221.77,523.7434 z"
     id="path18"
     style="stroke-width:53.8277" />
  <path
     class="cls-1"
     d="m 1191.0454,590.96539 c -3.1134,-5.6087 -7.1196,-10.8281 -11.7438,-15.8416 -4.8075,-4.8074 -10.439,-8.8136 -17.0549,-12.0414 11.6293,-5.6087 20.0538,-13.85 25.4793,-24.472 5.4026,-10.439 8.0123,-20.8551 8.0123,-30.6988 0,-9.8438 -1.5109,-19.2755 -4.7158,-28.0891 -3.1134,-9.0196 -7.9208,-16.8488 -14.3307,-23.8768 -6.5243,-6.8219 -14.6512,-12.2475 -24.472,-16.0476 -9.9353,-4.0062 -21.6563,-6.0207 -35.3002,-6.0207 h -122.383 v 160.2929 h 112.0356 c 11.3318,0 20.3514,3.0218 26.7842,8.8365 6.6159,5.8147 9.9353,13.6439 9.9353,23.0756 0,9.4317 -3.1133,17.0549 -9.3401,22.8696 -6.1123,5.6086 -15.2464,8.4244 -27.3794,8.4244 v 48.5549 h 15.338 c 12.9342,0 24.266,-2.1977 33.9953,-6.6159 9.7293,-4.4183 17.9476,-10.233 24.472,-17.4441 6.5243,-7.4171 11.5378,-15.8416 14.9488,-25.6853 3.4109,-9.6377 5.2194,-20.0538 5.2194,-31.088 0,-5.2194 -0.8012,-10.8281 -2.4037,-16.6428 -1.6024,-6.0207 -3.9146,-11.8354 -7.1195,-17.444 z m -60.2758,-53.7744 c -6.4099,5.4255 -15.2464,8.2184 -26.4866,8.2184 h -55.6745 v -63 h 54.8733 c 12.6366,0 21.8622,2.8158 27.7914,8.4244 5.9062,5.4255 8.928,13.4379 8.928,24.0829 0,9.2256 -3.2049,16.6428 -9.4316,22.2743 z"
     id="path20"
     style="stroke-width:2.28925" />
  <path
     class="cls-1"
     d="m 1412.0805,5375.5889 c -73.2057,-131.878 -167.404,-254.6051 -276.136,-372.4877 -113.0382,-113.0381 -245.4543,-207.2367 -401.0163,-283.1336 273.4446,-131.8779 471.5305,-325.6575 599.1021,-575.418 127.0334,-245.4542 188.3969,-490.3703 188.3969,-721.8292 0,-231.4592 -35.5261,-453.2293 -110.8849,-660.4658 C 1338.3366,2550.1736 1225.2985,2366.083 1074.581,2200.832 921.1721,2040.4253 730.0837,1912.8537 499.163,1823.4999 265.5508,1729.3013 -10.047101,1681.9329 -330.86,1681.9329 H -3208.4881 V 5450.9476 H -574.161 c 266.4468,0 478.527999,71.0524 629.783899,207.7749 155.562001,136.7224 233.612001,320.8129 233.612001,542.5831 0,221.7699 -73.2055,401.0162 -219.616901,537.7384 -143.72,131.8779 -358.492399,198.0861 -643.778999,198.0861 v 1141.6852 h 360.6454 c 304.126399,0 570.5735,-51.6746 799.3412,-155.5622 228.7677,-103.8873 422.009,-240.6097 575.418,-410.1668 153.4087,-174.4018 271.2913,-372.4876 351.4948,-603.9468 80.2033,-226.6144 122.7271,-471.5305 122.7271,-730.9798 0,-122.7273 -18.8398,-254.605 -56.5191,-391.3274 -37.6794,-141.5667 -92.0453,-278.2891 -167.4041,-410.167 z M -5.2026007,4111.1765 C -155.9201,4238.7481 -363.6949,4304.4179 -627.9887,4304.4179 h -1309.0894 v -1481.338 h 1290.2496 c 297.1289,0 514.0543,66.2079 653.4681993,198.0858 C 145.5151,3148.7373 216.5676,3337.1342 216.5676,3587.4329 c 0,216.9257 -75.3588,391.3275 -221.7702007,523.7436 z"
     id="path22"
     style="stroke-width:53.8277" />
  <path
     class="cls-1"
     d="m 4714.0753,15048.969 c -73.2055,-131.878 -167.404,-254.605 -276.1358,-372.488 -113.0384,-113.038 -245.4543,-207.236 -401.0165,-283.134 273.4448,-131.877 471.5307,-325.657 599.1023,-575.418 127.0332,-245.454 188.3969,-490.37 188.3969,-721.829 0,-231.459 -35.5264,-453.229 -110.8851,-660.466 -73.2057,-212.081 -186.2438,-396.171 -336.9613,-561.422 -153.409,-160.407 -344.4973,-287.978 -575.418,-377.333 -233.6122,-94.198 -509.2099,-141.566 -830.0228,-141.566 H 93.507199 v 3769.014 H 2727.8338 c 266.447,0 478.5282,71.053 629.7839,207.775 155.562,136.723 233.6122,320.813 233.6122,542.583 0,221.77 -73.2057,401.017 -219.6169,537.739 -143.72,131.878 -358.4926,198.086 -643.7792,198.086 v 1141.685 h 360.6456 c 304.1262,0 570.5732,-51.675 799.3409,-155.562 228.7677,-103.887 422.0091,-240.61 575.4181,-410.167 153.4089,-174.402 271.2915,-372.488 351.4948,-603.947 80.2032,-226.614 122.7271,-471.53 122.7271,-730.98 0,-122.727 -18.8398,-254.605 -56.5192,-391.327 -37.6794,-141.567 -92.0453,-278.289 -167.404,-410.167 z M 3296.7924,13784.556 c -150.7175,127.572 -358.4923,193.242 -622.7864,193.242 H 1364.9168 V 12496.46 h 1290.2497 c 297.1287,0 514.0543,66.208 653.468,198.086 138.8754,127.571 209.9279,315.968 209.9279,566.267 0,216.925 -75.3588,391.327 -221.77,523.743 z"
     id="path24"
     style="stroke-width:53.8277" />
  <path
     class="cls-3"
     d="m 10514.342,5795.4449 c 0,212.0809 -35.527,396.1717 -106.041,542.5829 -70.514,141.5669 -165.251,264.294 -278.289,358.4923 -113.038,89.8923 -240.6102,155.5623 -377.3322,198.0861 -139.414,42.5239 -278.289,61.3635 -412.858,61.3635 h -959.748 V 1682.4714 H 7106.5106 v 6396.3439 h 2415.2482 c 290.132,0 573.2652,-47.3683 848.8632,-131.8779 273.444,-85.0477 518.899,-216.9256 733.133,-386.4827 214.772,-174.4018 382.177,-391.3275 509.748,-646.4707 127.572,-259.4493 191.088,-551.7337 191.088,-886.542 V 4310.339 h -1290.249 v 1485.6441 z"
     id="path26"
     style="stroke-width:53.8277" />
  <polyline
     class="cls-3"
     points="363.76 193.91 314.07 119.07 292.56 119.07 292.56 238.09 316.22 238.09 316.22 162.71 316.88 162.71 367.05 237.9 388.43 237.9 388.43 229.09"
     id="polyline28"
     transform="matrix(53.827686,0,0,53.827686,-3208.4881,-4737.0186)" />
  <path
     class="cls-4"
     d="m 10514.342,3965.3035 c 0,-212.0811 -35.527,-396.1719 -106.041,-542.5831 -70.514,-141.5669 -165.251,-264.2941 -278.289,-358.4926 -113.038,-89.8922 -240.6102,-155.562 -377.3322,-198.0859 -139.414,-42.5238 -278.289,-61.3634 -412.858,-61.3634 h -959.748 c 0,0 0,5273.4984 0,5273.4984 H 7106.5106 v -6396.344 h 2415.2482 c 290.132,0 573.2652,47.3684 848.8632,131.878 273.444,85.0477 518.899,216.9256 733.133,386.4827 214.772,174.4018 382.177,391.3272 509.748,646.4703 127.572,259.4496 191.088,551.734 191.088,886.542 V 5450.4094 H 10514.342 V 3964.7651 Z"
     id="path30"
     style="stroke-width:53.8277" />
  <path
     class="cls-3"
     d="m 23252.665,5375.5889 c -73.206,-131.878 -167.406,-254.6051 -276.136,-372.4877 -113.039,-113.0381 -245.455,-207.2367 -401.016,-283.1336 273.443,-131.8779 471.53,-325.6575 599.1,-575.418 127.035,-245.4542 188.398,-490.3703 188.398,-721.8292 0,-231.4592 -35.527,-453.2293 -110.884,-660.4658 -73.206,-212.081 -186.244,-396.1716 -336.963,-561.4226 -153.408,-160.4067 -344.498,-287.9783 -575.418,-377.3321 -233.611,-94.1986 -509.209,-141.567 -830.024,-141.567 h -2877.627 v 3769.0147 h 2634.327 c 266.447,0 478.527,71.0524 629.785,207.7749 155.561,136.7224 233.61,320.8129 233.61,542.5831 0,221.7699 -73.205,401.0162 -219.616,537.7384 -143.719,131.8779 -358.491,198.0861 -643.779,198.0861 v 1141.6852 h 360.645 c 304.126,0 570.574,-51.6746 799.342,-155.5622 228.767,-103.8873 422.009,-240.6097 575.419,-410.1668 153.409,-174.4018 271.291,-372.4876 351.495,-603.9468 80.201,-226.6144 122.726,-471.5305 122.726,-730.9798 0,-122.7273 -18.84,-254.605 -56.519,-391.3274 -37.678,-141.5667 -92.046,-278.2891 -167.403,-410.167 z M 21835.381,4111.1765 c -150.717,127.5716 -358.493,193.2414 -622.786,193.2414 h -1309.089 v -1481.338 h 1290.248 c 297.13,0 514.055,66.2079 653.47,198.0858 138.874,127.5716 209.928,315.9685 209.928,566.2672 0,216.9257 -75.36,391.3275 -221.771,523.7436 z"
     id="path32"
     style="stroke-width:53.8277" />
  <path
     class="cls-3"
     d="m 2055.3213,9585.9907 c 22.6077,26.914 33.9115,61.902 33.9115,104.425 0,54.366 -19.9162,96.89 -60.287,125.957 -40.3706,29.067 -100.1195,44.139 -178.7079,44.139 h -293.361 v -637.3199 h 275.0597 c 71.0524,0 125.9567,13.9949 165.2509,42.5239 39.2943,28.529 58.6723,68.899 58.6723,121.112 0,34.988 -8.6124,65.132 -25.8374,89.892 -17.225,24.761 -40.909,43.063 -71.5909,54.905 41.9857,9.15 74.2824,26.914 96.8898,54.366 z m -431.1596,-307.356 v 231.459 h 202.9304 c 51.6746,0 91.507,-9.689 119.4974,-29.605 27.9904,-19.917 41.9857,-48.445 41.9857,-86.125 0,-37.679 -13.9953,-66.208 -41.9857,-86.124 -27.9904,-19.916 -67.8228,-29.605 -119.4974,-29.605 z m 354.186,497.367 c 29.067,-19.378 43.6005,-49.521 43.6005,-90.968 0,-79.665 -57.5955,-119.498 -172.7869,-119.498 h -224.9996 v 239.533 h 224.9996 c 57.0574,0 100.1197,-9.689 129.1864,-29.067 z"
     id="path34"
     style="stroke-width:53.8277" />
  <path
     class="cls-3"
     d="m 2625.8944,9690.4157 h -355.2627 l -76.4349,170.096 h -69.9758 l 291.207,-637.3199 h 66.7464 l 291.2078,637.3199 h -71.0525 z m -24.7608,-54.365 -152.8707,-342.345 -152.8705,342.345 z"
     id="path36"
     style="stroke-width:53.8277" />
  <path
     class="cls-3"
     d="m 2901.492,9843.2867 c -43.6003,-15.072 -76.9736,-34.988 -100.6577,-60.287 l 26.3756,-51.674 c 23.1459,23.145 53.8277,41.985 92.0453,55.98 38.2178,13.996 77.512,21.531 118.421,21.531 57.0574,0 100.1195,-10.227 128.648,-31.22 28.5288,-20.993 43.0623,-47.906 43.0623,-81.279 0,-25.3 -7.5359,-45.754 -23.1458,-60.826 -15.6102,-15.072 -34.4497,-26.914 -57.0574,-34.988 -22.6077,-8.074 -53.8277,-17.225 -93.6604,-26.914 -47.9065,-12.38 -86.1241,-23.684 -114.6529,-34.988 -28.5286,-11.303 -52.7511,-28.528 -73.2055,-51.674 -20.4546,-23.146 -30.6818,-54.366 -30.6818,-93.66 0,-32.297 8.6123,-61.364 25.2989,-87.739 17.225,-26.376 43.0623,-47.369 78.0502,-63.517 34.9879,-15.6102 79.1266,-23.6844 131.3395,-23.6844 36.6029,0 72.1291,4.8445 107.1172,15.0724 34.9879,10.227 65.1315,23.684 90.4304,41.447 l -22.6076,53.827 c -26.9138,-17.763 -55.4426,-30.681 -85.586,-39.832 -30.1436,-8.613 -60.287,-13.457 -89.354,-13.457 -55.9808,0 -97.9664,10.766 -125.9568,32.297 -27.9904,21.531 -42.5239,49.521 -42.5239,83.433 0,25.298 7.536,45.753 23.1459,61.363 15.6101,15.61 34.9881,27.452 58.134,35.526 23.1459,8.074 54.9043,17.225 94.1985,26.914 46.83,11.304 84.5094,23.146 113.5764,33.912 29.067,10.765 53.2895,27.99 73.2057,51.136 19.9162,22.607 30.1434,53.828 30.1434,92.584 0,32.296 -8.6124,61.363 -25.8374,87.739 -17.2247,26.375 -44.1387,47.368 -79.6648,62.978 -36.0645,15.61 -79.665,23.146 -131.8779,23.146 -47.3684,0 -92.5837,-7.536 -136.184,-22.608 z"
     id="path38"
     style="stroke-width:53.8277" />
  <path
     class="cls-3"
     d="m 3855.3188,9802.3777 v 58.134 h -450.5379 v -637.3199 h 437.0808 v 58.1339 h -369.7962 v 226.615 h 329.4256 v 57.595 h -329.4256 v 236.842 z"
     id="path40"
     style="stroke-width:53.8277" />
  <path
     class="cls-3"
     d="m 4217.579,9223.1918 h 259.4495 c 67.2846,0 127.0332,13.4569 178.7079,40.3709 51.6747,26.914 91.5071,64.593 120.0357,113.038 28.5288,48.445 42.5238,103.349 42.5238,165.251 0,61.902 -13.995,116.806 -42.5238,165.251 -28.5286,48.445 -68.361,86.124 -120.0357,113.038 -51.6747,26.914 -110.8851,40.371 -178.7079,40.371 H 4217.579 Z m 255.6814,579.1859 c 55.981,0 104.9642,-11.304 146.4115,-33.373 41.9856,-22.07 74.2821,-52.751 97.4282,-92.045 23.1458,-39.295 34.4497,-83.972 34.4497,-135.108 0,-51.136 -11.3039,-95.813 -34.4497,-135.108 -23.1461,-39.294 -55.4426,-69.975 -97.4282,-92.045 -41.9857,-22.069 -90.9689,-33.373 -146.4115,-33.373 h -188.3968 v 521.052 z"
     id="path42"
     style="stroke-width:53.8277" />
  <path
     class="cls-3"
     d="m 5402.8647,9802.3777 v 58.134 h -450.5378 v -637.3199 h 437.081 v 58.1339 h -369.7964 v 226.615 h 329.4255 v 57.595 h -329.4255 v 236.842 z"
     id="path44"
     style="stroke-width:53.8277" />
  <path
     class="cls-3"
     d="m 5765.1247,9223.1918 h 259.4496 c 67.2845,0 127.0334,13.4569 178.7078,40.3709 51.6747,26.914 91.5071,64.593 120.0359,113.038 28.5286,48.445 42.5239,103.349 42.5239,165.251 0,61.902 -13.9953,116.806 -42.5239,165.251 -28.5288,48.445 -68.3612,86.124 -120.0359,113.038 -51.6744,26.914 -110.8851,40.371 -178.7078,40.371 h -259.4496 z m 255.6817,579.1859 c 55.9807,0 104.9639,-11.304 146.4112,-33.373 41.9857,-22.07 74.2823,-52.751 97.4282,-92.045 23.1459,-39.295 34.4497,-83.972 34.4497,-135.108 0,-51.136 -11.3038,-95.813 -34.4497,-135.108 -23.1459,-39.294 -55.4425,-69.975 -97.4282,-92.045 -41.9855,-22.069 -90.9687,-33.373 -146.4112,-33.373 h -188.3969 v 521.052 z"
     id="path46"
     style="stroke-width:53.8277" />
  <path
     class="cls-3"
     d="m 6606.9898,9823.3707 c -51.1362,-27.991 -91.5071,-66.747 -120.0356,-116.268 -29.067,-48.983 -43.0623,-104.426 -43.0623,-165.789 0,-61.364 14.5335,-116.806 43.0623,-165.79 28.5285,-48.983 68.8994,-87.739 120.0356,-116.267 51.1363,-27.991 108.1936,-42.5242 171.7103,-42.5242 63.5167,0 120.0357,13.9952 170.6337,41.9852 50.5981,27.991 90.4307,66.747 119.4975,116.268 29.067,49.522 43.6005,104.964 43.6005,166.328 0,61.363 -14.5335,116.806 -43.6005,166.327 -29.0668,49.522 -68.8994,88.278 -119.4975,116.268 -50.598,27.991 -107.6552,41.986 -170.6337,41.986 -62.9782,0 -120.574,-13.995 -171.7103,-42.524 z m 308.4328,-51.675 c 40.909,-22.607 72.6672,-54.366 95.8131,-94.736 23.1459,-40.371 34.4497,-85.587 34.4497,-135.108 0,-49.521 -11.3038,-94.737 -34.4497,-135.108 -23.1459,-40.37 -54.9041,-72.129 -95.8131,-94.736 -40.9091,-22.608 -86.1244,-33.912 -136.7225,-33.912 -50.598,0 -95.8133,11.304 -137.2606,33.912 -40.909,22.607 -73.2057,54.366 -96.3516,94.736 -23.1458,40.371 -34.9879,85.587 -34.9879,135.108 0,49.521 11.8421,94.737 34.9879,135.108 23.1459,40.37 55.4426,72.129 96.3516,94.736 40.9091,22.608 86.6626,33.912 137.2606,33.912 50.5981,0 95.8134,-11.304 136.7225,-33.912 z"
     id="path48"
     style="stroke-width:53.8277" />
  <path
     class="cls-3"
     d="m 7779.3569,9223.1918 v 637.3199 h -55.4426 l -409.6286,-517.284 v 517.284 h -67.2848 v -637.3199 h 55.4426 l 410.7052,517.2839 v -517.2839 h 66.7464 z"
     id="path50"
     style="stroke-width:53.8277" />
  <path
     class="cls-3"
     d="m 8502.2628,9223.1918 v 637.3199 h -55.443 l -409.6282,-517.284 v 517.284 h -67.2848 v -637.3199 h 55.4425 l 410.7055,517.2839 v -517.2839 h 66.746 z"
     id="path52"
     style="stroke-width:53.8277" />
  <path
     class="cls-3"
     d="m 9143.3508,9802.3777 v 58.134 h -450.538 v -637.3199 h 437.081 v 58.1339 h -369.797 v 226.615 h 329.426 v 57.595 h -329.426 v 236.842 z m -165.79,-743.8985 h 86.663 l -147.488,113.0381 h -63.517 l 124.881,-113.0381 z"
     id="path54"
     style="stroke-width:53.8277" />
  <path
     class="cls-3"
     d="m 9735.4548,9802.3777 v 58.134 h -450.538 v -637.3199 h 437.081 v 58.1339 h -369.796 v 226.615 h 329.426 v 57.595 h -329.426 v 236.842 z"
     id="path56"
     style="stroke-width:53.8277" />
  <path
     class="cls-3"
     d="m 9915.7778,9843.2867 c -43.601,-15.072 -76.974,-34.988 -100.658,-60.287 l 26.376,-51.674 c 23.146,23.145 53.827,41.985 92.045,55.98 38.218,13.996 77.5122,21.531 118.4212,21.531 57.057,0 100.12,-10.227 128.648,-31.22 28.529,-20.993 43.062,-47.906 43.062,-81.279 0,-25.3 -7.536,-45.754 -23.146,-60.826 -15.61,-15.072 -34.449,-26.914 -57.057,-34.988 -22.608,-8.074 -53.828,-17.225 -93.66,-26.914 -47.907,-12.38 -86.1252,-23.684 -114.6532,-34.988 -28.529,-11.303 -52.751,-28.528 -73.206,-51.674 -20.454,-23.146 -30.682,-54.366 -30.682,-93.66 0,-32.297 8.613,-61.364 25.299,-87.739 17.225,-26.376 43.063,-47.369 78.051,-63.517 34.988,-15.6102 79.1262,-23.6844 131.3392,-23.6844 36.603,0 72.129,4.8445 107.117,15.0724 34.988,10.227 65.132,23.684 90.431,41.447 l -22.608,53.827 c -26.914,-17.763 -55.442,-30.681 -85.586,-39.832 -30.143,-8.613 -60.287,-13.457 -89.354,-13.457 -55.981,0 -97.9662,10.766 -125.9572,32.297 -27.99,21.531 -42.523,49.521 -42.523,83.433 0,25.298 7.536,45.753 23.145,61.363 15.611,15.61 34.988,27.452 58.134,35.526 23.1462,8.074 54.9052,17.225 94.1992,26.914 46.83,11.304 84.509,23.146 113.576,33.912 29.067,10.765 53.29,27.99 73.206,51.136 19.916,22.607 30.143,53.828 30.143,92.584 0,32.296 -8.612,61.363 -25.837,87.739 -17.225,26.375 -44.139,47.368 -79.665,62.978 -36.065,15.61 -79.665,23.146 -131.878,23.146 -47.368,0 -92.5832,-7.536 -136.1842,-22.608 z"
     id="path58"
     style="stroke-width:53.8277" />
  <path
     class="cls-3"
     d="m 11173.193,9223.1918 v 637.3199 h -55.443 l -409.628,-517.284 v 517.284 h -67.285 v -637.3199 h 55.442 l 410.706,517.2839 v -517.2839 h 66.746 z"
     id="path60"
     style="stroke-width:53.8277" />
  <path
     class="cls-3"
     d="m 11763.144,9690.4157 h -355.263 l -76.435,170.096 h -69.976 l 291.208,-637.3199 h 66.746 l 291.208,637.3199 h -71.053 z m -24.761,-54.365 -152.87,-342.345 -152.871,342.345 z"
     id="path62"
     style="stroke-width:53.8277" />
  <path
     class="cls-3"
     d="m 12090.955,9281.3257 h -223.923 v -58.1339 h 515.131 v 58.1339 h -223.924 v 579.186 h -67.284 z"
     id="path64"
     style="stroke-width:53.8277" />
  <path
     class="cls-3"
     d="m 12472.055,9223.1918 h 67.284 v 637.3199 h -67.284 z"
     id="path66"
     style="stroke-width:53.8277" />
  <path
     class="cls-3"
     d="m 12837.006,9823.3707 c -51.136,-27.991 -91.507,-66.747 -120.035,-116.268 -29.067,-48.983 -43.063,-104.426 -43.063,-165.789 0,-61.364 14.534,-116.806 43.063,-165.79 28.528,-48.983 68.899,-87.739 120.035,-116.267 51.137,-27.991 108.194,-42.5242 171.711,-42.5242 63.516,0 120.036,13.9952 170.633,41.9852 50.599,27.991 90.431,66.747 119.498,116.268 29.067,49.522 43.6,104.964 43.6,166.328 0,61.363 -14.533,116.806 -43.6,166.327 -29.067,49.522 -68.899,88.278 -119.498,116.268 -50.597,27.991 -107.655,41.986 -170.633,41.986 -62.979,0 -120.574,-13.995 -171.711,-42.524 z m 308.433,-51.675 c 40.909,-22.607 72.667,-54.366 95.813,-94.736 23.146,-40.371 34.45,-85.587 34.45,-135.108 0,-49.521 -11.304,-94.737 -34.45,-135.108 -23.146,-40.37 -54.904,-72.129 -95.813,-94.736 -40.909,-22.608 -86.124,-33.912 -136.722,-33.912 -50.598,0 -95.813,11.304 -137.261,33.912 -40.909,22.607 -73.206,54.366 -96.351,94.736 -23.146,40.371 -34.988,85.587 -34.988,135.108 0,49.521 11.842,94.737 34.988,135.108 23.145,40.37 55.442,72.129 96.351,94.736 40.909,22.608 86.663,33.912 137.261,33.912 50.598,0 95.813,-11.304 136.722,-33.912 z"
     id="path68"
     style="stroke-width:53.8277" />
  <path
     class="cls-3"
     d="m 14009.374,9223.1918 v 637.3199 h -55.443 l -409.629,-517.284 v 517.284 h -67.284 v -637.3199 h 55.442 l 410.705,517.2839 v -517.2839 h 66.747 z"
     id="path70"
     style="stroke-width:53.8277" />
  <path
     class="cls-3"
     d="m 14599.325,9690.4157 h -355.263 l -76.435,170.096 h -69.976 l 291.208,-637.3199 h 66.746 l 291.208,637.3199 h -71.053 z m -24.761,-54.365 -152.87,-342.345 -152.871,342.345 z"
     id="path72"
     style="stroke-width:53.8277" />
  <path
     class="cls-3"
     d="m 14835.09,9223.1918 h 67.285 v 579.1859 h 356.877 v 58.134 h -424.162 z"
     id="path74"
     style="stroke-width:53.8277" />
  <path
     class="cls-3"
     d="m 15805.065,9802.3777 v 58.134 h -450.538 v -637.3199 h 437.081 v 58.1339 h -369.796 v 226.615 h 329.425 v 57.595 h -329.425 v 236.842 z"
     id="path76"
     style="stroke-width:53.8277" />
  <path
     class="cls-3"
     d="m 16167.325,9223.1918 h 259.45 c 67.284,0 127.033,13.4569 178.708,40.3709 51.674,26.914 91.507,64.593 120.036,113.038 28.528,48.445 42.524,103.349 42.524,165.251 0,61.902 -13.996,116.806 -42.524,165.251 -28.529,48.445 -68.362,86.124 -120.036,113.038 -51.675,26.914 -110.885,40.371 -178.708,40.371 h -259.45 z m 255.682,579.1859 c 55.981,0 104.964,-11.304 146.411,-33.373 41.986,-22.07 74.283,-52.751 97.428,-92.045 23.146,-39.295 34.45,-83.972 34.45,-135.108 0,-51.136 -11.304,-95.813 -34.45,-135.108 -23.145,-39.294 -55.442,-69.975 -97.428,-92.045 -41.985,-22.069 -90.968,-33.373 -146.411,-33.373 h -188.397 v 521.052 z"
     id="path78"
     style="stroke-width:53.8277" />
  <path
     class="cls-3"
     d="m 17352.611,9802.3777 v 58.134 h -450.538 v -637.3199 h 437.081 v 58.1339 h -369.796 v 226.615 h 329.425 v 57.595 h -329.425 v 236.842 z"
     id="path80"
     style="stroke-width:53.8277" />
  <path
     class="cls-3"
     d="m 17533.472,9843.2867 c -43.6,-15.072 -76.973,-34.988 -100.658,-60.287 l 26.376,-51.674 c 23.146,23.145 53.828,41.985 92.045,55.98 38.218,13.996 77.512,21.531 118.421,21.531 57.058,0 100.12,-10.227 128.648,-31.22 28.529,-20.993 43.063,-47.906 43.063,-81.279 0,-25.3 -7.536,-45.754 -23.146,-60.826 -15.61,-15.072 -34.45,-26.914 -57.058,-34.988 -22.607,-8.074 -53.827,-17.225 -93.66,-26.914 -47.907,-12.38 -86.124,-23.684 -114.653,-34.988 -28.529,-11.303 -52.751,-28.528 -73.205,-51.674 -20.455,-23.146 -30.682,-54.366 -30.682,-93.66 0,-32.297 8.612,-61.364 25.299,-87.739 17.225,-26.376 43.062,-47.369 78.05,-63.517 34.988,-15.6102 79.126,-23.6844 131.339,-23.6844 36.603,0 72.129,4.8445 107.117,15.0724 34.988,10.227 65.132,23.684 90.431,41.447 l -22.608,53.827 c -26.913,-17.763 -55.442,-30.681 -85.586,-39.832 -30.143,-8.613 -60.287,-13.457 -89.354,-13.457 -55.98,0 -97.966,10.766 -125.956,32.297 -27.991,21.531 -42.524,49.521 -42.524,83.433 0,25.298 7.536,45.753 23.146,61.363 15.61,15.61 34.988,27.452 58.134,35.526 23.145,8.074 54.904,17.225 94.198,26.914 46.83,11.304 84.509,23.146 113.576,33.912 29.067,10.765 53.29,27.99 73.206,51.136 19.916,22.607 30.143,53.828 30.143,92.584 0,32.296 -8.612,61.363 -25.837,87.739 -17.225,26.375 -44.138,47.368 -79.665,62.978 -36.064,15.61 -79.665,23.146 -131.878,23.146 -47.368,0 -92.583,-7.536 -136.184,-22.608 z"
     id="path82"
     style="stroke-width:53.8277" />
  <path
     class="cls-3"
     d="m 18756.437,9585.9907 c 22.608,26.914 33.912,61.902 33.912,104.425 0,54.366 -19.917,96.89 -60.287,125.957 -40.371,29.067 -100.12,44.139 -178.708,44.139 h -293.361 v -637.3199 h 275.059 c 71.053,0 125.957,13.9949 165.251,42.5239 39.295,28.529 58.673,68.899 58.673,121.112 0,34.988 -8.613,65.132 -25.838,89.892 -17.225,24.761 -40.909,43.063 -71.591,54.905 41.986,9.15 74.282,26.914 96.89,54.366 z m -431.16,-307.356 v 231.459 h 202.931 c 51.674,0 91.507,-9.689 119.497,-29.605 27.991,-19.917 41.986,-48.445 41.986,-86.125 0,-37.679 -13.995,-66.208 -41.986,-86.124 -27.99,-19.916 -67.823,-29.605 -119.497,-29.605 z m 354.187,497.367 c 29.067,-19.378 43.6,-49.521 43.6,-90.968 0,-79.665 -57.596,-119.498 -172.787,-119.498 h -225 v 239.533 h 225 c 57.057,0 100.12,-9.689 129.187,-29.067 z"
     id="path84"
     style="stroke-width:53.8277" />
  <path
     class="cls-3"
     d="m 19326.472,9690.4157 h -355.262 l -76.436,170.096 h -69.976 l 291.208,-637.3199 h 66.746 l 291.208,637.3199 h -71.052 z m -24.76,-54.365 -152.871,-342.345 -152.871,342.345 z m -61.902,-464.5334 -89.892,-75.3587 -89.893,75.3587 h -60.287 l 117.345,-113.0381 h 65.669 l 117.345,113.0381 z"
     id="path86"
     style="stroke-width:53.8277" />
  <path
     class="cls-3"
     d="m 19654.283,9281.3257 h -223.923 v -58.1339 h 515.13 v 58.1339 h -223.922 v 579.186 h -67.285 z"
     id="path88"
     style="stroke-width:53.8277" />
  <path
     class="cls-3"
     d="m 20035.92,9223.1918 h 67.286 v 637.3199 h -67.286 z"
     id="path90"
     style="stroke-width:53.8277" />
  <path
     class="cls-3"
     d="m 20955.837,9223.1918 v 637.3199 h -64.593 v -509.748 l -250.299,429.007 h -31.759 l -250.299,-426.316 v 507.057 h -64.593 v -637.3199 h 55.443 l 276.673,472.6069 273.984,-472.6069 z"
     id="path92"
     style="stroke-width:53.8277" />
  <path
     class="cls-3"
     d="m 21596.924,9802.3777 v 58.134 h -450.537 v -637.3199 h 437.081 v 58.1339 h -369.798 v 226.615 h 329.427 v 57.595 h -329.427 v 236.842 z"
     id="path94"
     style="stroke-width:53.8277" />
  <path
     class="cls-3"
     d="m 22270.308,9223.1918 v 637.3199 h -55.443 l -409.628,-517.284 v 517.284 h -67.284 v -637.3199 h 55.441 l 410.707,517.2839 v -517.2839 h 66.745 z"
     id="path96"
     style="stroke-width:53.8277" />
  <path
     class="cls-3"
     d="m 22584.663,9281.3257 h -223.925 v -58.1339 h 515.133 v 58.1339 h -223.925 v 579.186 h -67.283 z"
     id="path98"
     style="stroke-width:53.8277" />
  <path
     class="cls-3"
     d="m 22995.905,9843.2867 c -43.598,-15.072 -76.973,-34.988 -100.658,-60.287 l 26.377,-51.674 c 23.147,23.145 53.827,41.985 92.046,55.98 38.217,13.996 77.512,21.531 118.42,21.531 57.058,0 100.12,-10.227 128.649,-31.22 28.529,-20.993 43.061,-47.906 43.061,-81.279 0,-25.3 -7.536,-45.754 -23.144,-60.826 -15.611,-15.072 -34.451,-26.914 -57.058,-34.988 -22.608,-8.074 -53.829,-17.225 -93.662,-26.914 -47.905,-12.38 -86.124,-23.684 -114.652,-34.988 -28.529,-11.303 -52.751,-28.528 -73.206,-51.674 -20.454,-23.146 -30.682,-54.366 -30.682,-93.66 0,-32.297 8.614,-61.364 25.3,-87.739 17.225,-26.376 43.061,-47.369 78.05,-63.517 34.989,-15.6102 79.128,-23.6844 131.339,-23.6844 36.602,0 72.129,4.8445 107.118,15.0724 34.989,10.227 65.131,23.684 90.43,41.447 l -22.607,53.827 c -26.914,-17.763 -55.443,-30.681 -85.588,-39.832 -30.142,-8.613 -60.285,-13.457 -89.353,-13.457 -55.979,0 -97.966,10.766 -125.957,32.297 -27.991,21.531 -42.523,49.521 -42.523,83.433 0,25.298 7.536,45.753 23.147,61.363 15.608,15.61 34.986,27.452 58.133,35.526 23.146,8.074 54.903,17.225 94.198,26.914 46.831,11.304 84.51,23.146 113.576,33.912 29.067,10.765 53.289,27.99 73.206,51.136 19.916,22.607 30.144,53.828 30.144,92.584 0,32.296 -8.612,61.363 -25.838,87.739 -17.225,26.375 -44.139,47.368 -79.664,62.978 -36.065,15.61 -79.666,23.146 -131.879,23.146 -47.369,0 -92.584,-7.536 -136.185,-22.608 z"
     id="path100"
     style="stroke-width:53.8277" />
  <path
     class="cls-3"
     d="m 11447.714,10951.061 c -52.751,-27.99 -93.66,-67.285 -123.804,-117.344 -30.143,-50.06 -45.215,-106.579 -45.215,-169.558 0,-62.978 15.072,-119.497 45.215,-169.557 30.144,-50.06 71.053,-89.354 123.804,-117.344 52.751,-27.991 111.423,-42.524 177.093,-42.524 55.443,0 104.964,9.689 149.641,29.067 44.677,19.378 82.356,47.368 112.5,83.971 l -94.737,87.201 c -43.062,-49.522 -96.352,-74.821 -160.406,-74.821 -39.295,0 -74.821,8.613 -105.503,25.838 -30.681,17.225 -54.904,41.447 -72.129,72.129 -17.225,31.22 -25.837,66.208 -25.837,105.502 0,39.294 8.612,74.821 25.837,105.502 17.225,30.682 41.448,54.905 72.129,72.13 31.22,17.224 66.208,25.837 105.503,25.837 63.516,0 117.344,-25.299 160.406,-75.359 l 94.737,87.201 c -30.144,37.141 -67.823,65.131 -113.038,84.509 -44.677,19.378 -94.737,29.067 -150.18,29.067 -65.131,0 -123.803,-13.995 -176.016,-42.524 z"
     id="path102"
     style="stroke-width:53.8277" />
  <path
     class="cls-3"
     d="m 12026.362,10973.13 c -46.831,-13.457 -85.048,-31.22 -113.577,-53.289 l 50.06,-110.885 c 27.452,19.916 59.749,36.064 97.428,48.445 37.679,12.38 75.359,18.301 113.038,18.301 41.986,0 72.668,-6.459 93.122,-18.84 19.916,-12.38 30.144,-29.067 30.144,-49.521 0,-15.072 -5.922,-27.99 -17.764,-37.679 -11.842,-10.228 -26.914,-18.302 -45.753,-24.223 -18.302,-5.921 -43.601,-12.919 -75.359,-19.916 -48.445,-11.304 -88.277,-23.146 -119.497,-34.45 -31.22,-11.304 -57.596,-30.143 -79.665,-55.442 -22.07,-25.299 -33.373,-59.749 -33.373,-101.735 0,-37.141 10.227,-70.514 30.143,-100.657 19.916,-30.144 50.06,-53.828 90.43,-71.591 40.371,-17.764 89.893,-26.376 148.027,-26.376 40.909,0 80.203,4.845 119.497,14.534 38.756,9.689 72.667,23.684 101.734,41.985 l -45.753,111.962 c -58.672,-33.373 -117.883,-50.06 -176.555,-50.06 -41.447,0 -71.591,6.459 -91.507,19.916 -19.916,13.457 -29.605,30.682 -29.605,52.751 0,22.07 11.304,38.218 33.911,48.445 22.608,10.766 57.596,20.993 104.426,31.22 48.445,11.304 88.277,23.146 119.497,34.45 31.22,11.304 57.596,29.605 79.665,54.366 22.07,24.761 33.374,58.672 33.374,101.196 0,36.603 -10.228,69.438 -30.682,99.581 -20.455,30.144 -50.598,53.828 -91.507,71.591 -40.909,17.763 -90.431,26.376 -148.565,26.376 -50.598,0 -99.043,-6.998 -145.873,-20.455 z"
     id="path104"
     style="stroke-width:53.8277" />
  <path
     class="cls-3"
     d="m 12649.686,10465.535 h -204.007 v -120.036 h 555.502 v 120.036 h -204.007 v 517.284 h -147.488 z"
     id="path106"
     style="stroke-width:53.8277" />
  <path
     class="cls-3"
     d="m 13616.97,10708.836 c 20.454,26.914 31.22,60.287 31.22,99.581 0,55.981 -21.531,99.043 -65.132,128.649 -43.6,29.605 -106.579,45.215 -190.012,45.215 h -329.425 v -637.32 h 311.124 c 77.512,0 137.261,15.072 178.708,44.677 41.447,29.605 62.44,69.976 62.44,121.112 0,31.221 -7.536,58.673 -22.069,82.895 -15.072,24.223 -35.527,43.601 -62.44,57.596 36.602,11.303 65.131,30.681 85.586,57.595 z m -406.938,-252.452 v 150.18 h 146.412 c 36.602,0 64.055,-6.46 82.894,-19.378 18.84,-12.919 28.529,-31.759 28.529,-56.519 0,-24.761 -9.689,-43.601 -28.529,-55.981 -18.839,-12.38 -46.292,-18.84 -82.894,-18.84 h -146.412 z m 259.988,396.172 c 19.916,-12.918 29.605,-32.296 29.605,-59.21 0,-52.751 -39.294,-79.127 -117.344,-79.127 h -172.249 v 157.715 h 172.249 c 38.756,0 68.361,-6.459 87.739,-19.378 z"
     id="path108"
     style="stroke-width:53.8277" />
</svg>
