<?xml version="1.0" encoding="utf-8"?>
<!-- Generator: Adobe Illustrator 19.2.1, SVG Export Plug-In . SVG Version: 6.00 Build 0)  -->
<!DOCTYPE svg PUBLIC "-//W3C//DTD SVG 1.1//EN" "http://www.w3.org/Graphics/SVG/1.1/DTD/svg11.dtd">
<svg version="1.1" id="Calque_1" xmlns="http://www.w3.org/2000/svg" xmlns:xlink="http://www.w3.org/1999/xlink" x="0px" y="0px"
	 viewBox="0 0 991.5 180.5" style="enable-background:new 0 0 991.5 180.5;" xml:space="preserve">
<style type="text/css">
	.st0{fill:#A1C90E;}
	.st1{fill:#37455B;}
</style>
<title>maison</title>
<path id="maison.svg" class="st0" d="M991.4,148.5h-22v-48h-45v48h-22c0,0,0.1-41.8,0.2-60.6c0-6.1,2.4-8.5,8.7-8.5
	c20.6-0.1,41.3-0.1,61.9,0c11.2,0.1,18.2,7.2,18.2,18.1C991.5,128.6,991.4,148.5,991.4,148.5z M880,148.4c-7.8,0-41,0.1-49.9,0
	c-11.8-0.1-19.2-7.4-19.2-18.9c0-10.5,0-21,0-31.5c0-11.4,7.2-18.5,18.9-18.5c17-0.1,33.9-0.1,50.9,0c11.9,0,19,6.4,19.5,18
	c0.4,10.8,0.4,21.7,0,32.5C899.8,141.9,892.4,148.4,880,148.4L880,148.4z M877.5,101.3h-43.8v24.8h43.8L877.5,101.3L877.5,101.3
	L877.5,101.3z M791.6,148.3c-22.9,0.2-45.9,0.1-68.8,0c-0.6-0.1-1.1-0.3-1.6-0.6v-21.2h65.2v-4h-52c-8.6,0-14.4-8.9-14.5-17.4
	c0-2.9,0-5.8,0-8.7c0.1-9,6.7-16.6,15.9-16.7c16.8-0.1,70.7-0.1,70.7-0.1s-0.2,7.4-0.2,21.5c-21.3,0-63.8,0.5-63.8,0.5v3.6h43.9
	c16.5,0,22.4,5.8,22.3,22c0,2.9,0.2,5.9-0.6,8.6C806.1,143.2,799.3,148.4,791.6,148.3L791.6,148.3z M707.4,73.5h-3
	c-5.5,0-10-4.5-10-10v-2c0-5.5,4.5-10,10-10h3c5.5,0,10,4.5,10,10v2C717.4,69.1,713,73.5,707.4,73.5z M683.6,148.4
	c-20.3,0.1-40.6,0.1-60.9,0c-11.1-0.1-18.7-6.3-18.7-17.9c0-14.5-0.2-25.4,24.5-25.4c12.2,0,33.4,0.1,33.4,0.1v17.1l-35.6,0.3v4
	h44.1v-25.3h-52.7l-0.2-22.8c0,0,38.9-0.1,55.9,0c12.7,0,19.7,7.9,19.7,20.2c0,13.4,0,26.8,0,40.3
	C693.2,145.7,690.6,148.4,683.6,148.4z M579.2,148.4v-47h-17.7v46.7h-22.1v-46.8h-17.8v46.8h-22.3c0-15.1,0-26.7,0-59.2
	c0-7.2,2.3-9.5,9.8-9.5c24.4,0,48.9,0,73.3,0c11.8,0,18.1,6.8,18.3,18.2c0,5.9,0,50.8,0,50.8S586.2,148.4,579.2,148.4L579.2,148.4z
	 M271.2,159.3c-5.9,10.2-28.4,10.7-59.2,2.9v-10.2c21.1,5.1,36,4.4,40.4-3.2c6.2-10.7-9.8-31-39.1-53.7H212v5.3
	c17.5,15.4,27,29.1,22.7,36.7c-2.9,5-11.1,6.2-22.7,4.5v-7.9c3.9-0.4,6.8-1.7,8.1-4.1c2.7-4.7-0.7-11.8-8.1-20.2v24.4
	c-16.1,1.7-50.9-12.1-84.3-31C96.2,84.8,71,65.2,63.6,51.4l20.5-15.1c-11.1-2.1-19-1.1-21.8,3.8c-1.7,3-1.2,6.9,1.2,11.4l-6.3,4.7
	c13.5,15.3,38.3,33.8,68,50.6c32.3,18.3,65.3,31.6,86.7,34.8v10.4c-24.3-5.9-56.8-19.4-90.9-38.7C91.8,96.7,66.3,78.8,48.3,62.7
	L39.8,69C10.2,42.6-5.2,18.7,1.6,7C9.9-7.3,50.3,1.3,101,23.9l20.8-15.3c5.6-4.1,14.7-4.1,20.2,0l97.2,71.5c5.6,4.1,5.6,10.8,0,14.9
	h-16.5C258.6,122.2,278.5,146.5,271.2,159.3L271.2,159.3z M21.2,18.1c-5.2,9,5.8,25.5,27.1,44.6l8.9-6.6c-9.2-10.4-13.2-19.3-9.8-25
	c4.5-7.9,21.2-7,43.6,0.2l4.8-3.6C57.4,12,27.7,6.9,21.2,18.1z M212,162.2v8.4c0,5.5-4.5,10-10,10h-52.5v-24c0-5.5-4.5-10-10-10h-15
	c-5.5,0-10,4.5-10,10v24H61.9c-5.5,0-10-4.5-10-10V95H24.6c-5.6-4.1-5.6-10.8,0-14.9L39.8,69c19.4,17.3,44.9,35.6,74.4,52.3
	C149.4,141.2,184.1,155.1,212,162.2z M717,148.5c0,0-15.2-0.1-21.2-0.1V79.9H717C717,158.1,717,148.5,717,148.5L717,148.5L717,148.5
	z"/>
<path id="fai.svg" class="st1" d="M302,84.1c0.1-2.8,1.3-5,5.9-5c53.7,0,81.6,0.1,81.6,0.1v22.3h-64.9v7.8h45.8v18.4h-46v21.5H302
	V84.1z M436.5,122.7l-35.6,0.3v4H445v-25.3h-52.8l-0.2-22.8c0,0,38.9-0.1,55.9,0c12.7,0,19.7,7.9,19.7,20.2c0,13.4,0,26.8,0,40.3
	c0,6.8-2.6,9.5-9.5,9.5c-20.3,0.1-40.6,0.1-60.9,0c-11.1-0.1-18.7-6.3-18.7-17.9c0-14.5-0.2-25.4,24.5-25.4
	c12.2,0,33.4,0.1,33.4,0.1L436.5,122.7L436.5,122.7z M491.4,80.3c0,78.3,0,68.6,0,68.6s-15.2-0.1-21.2-0.1V80.3H491.4z M478.9,52h3
	c5.5,0,10,4.5,10,10v2c0,5.5-4.5,10-10,10h-3c-5.5,0-10-4.5-10-10v-2C468.9,56.5,473.4,52,478.9,52L478.9,52z"/>
</svg>
