<?xml version="1.0" encoding="UTF-8" standalone="no"?>
<!-- Generator: Adobe Illustrator 25.4.2, SVG Export Plug-In . SVG Version: 6.00 Build 0)  -->

<svg
   version="1.1"
   id="Calque_2"
   x="0px"
   y="0px"
   viewBox="0.4 2.7755576e-17 107.32608 67.61753"
   xml:space="preserve"
   sodipodi:docname="logo_UFR_IUGA_couleur_2020.svg"
   width="213.65216"
   height="135.23506"
   inkscape:version="1.1.2 (0a00cf5339, 2022-02-04)"
   xmlns:inkscape="http://www.inkscape.org/namespaces/inkscape"
   xmlns:sodipodi="http://sodipodi.sourceforge.net/DTD/sodipodi-0.dtd"
   xmlns="http://www.w3.org/2000/svg"
   xmlns:svg="http://www.w3.org/2000/svg"><defs
   id="defs141" /><sodipodi:namedview
   id="namedview139"
   pagecolor="#ffffff"
   bordercolor="#666666"
   borderopacity="1.0"
   inkscape:pageshadow="2"
   inkscape:pageopacity="0.0"
   inkscape:pagecheckerboard="0"
   showgrid="true"
   units="px"
   width="106.82608px"
   fit-margin-top="0"
   fit-margin-left="0"
   fit-margin-right="0"
   fit-margin-bottom="0"
   inkscape:zoom="2.8498871"
   inkscape:cx="-199.30614"
   inkscape:cy="-50.879208"
   inkscape:window-width="3440"
   inkscape:window-height="1384"
   inkscape:window-x="0"
   inkscape:window-y="0"
   inkscape:window-maximized="1"
   inkscape:current-layer="Calque_2"
   scale-x="0.5"
   viewbox-x="0.4"
   viewbox-y="0"
   viewbox-width="107.32608"><inkscape:grid
     type="xygrid"
     id="grid1038"
     originx="-6.0103745"
     originy="-5.8386465" /></sodipodi:namedview>
<style
   type="text/css"
   id="style2">
	.st0{fill:#2A2E46;}
	.st1{fill:#E84E0F;}
</style>
<g
   id="g18"
   transform="matrix(0.43251175,0,0,0.47278445,-4.5500236,-5.0305314)">
	<path
   class="st0"
   d="M 41.52,77.35 C 24.97,77.35 11.51,63.89 11.51,47.34 V 11.82 h 13.36 v 35.51 c 0,9.18 7.47,16.65 16.65,16.65 9.18,0 16.65,-7.47 16.65,-16.65 V 11.82 H 71.53 V 47.33 C 71.54,63.88 58.07,77.35 41.52,77.35 Z"
   id="path4" />
	<g
   id="g8">
		<polygon
   class="st0"
   points="210.94,76.43 226.36,76.43 189.06,11.82 151.76,76.43 167.18,76.43 189.06,38.53 "
   id="polygon6" />
	</g>
	<path
   class="st0"
   d="m 116.3,77.34 c -6.25,0 -12.57,-1.75 -18.19,-5.42 C 82.71,61.86 78.36,41.15 88.42,25.75 98.48,10.35 119.19,6 134.59,16.06 l -7.3,11.18 c -9.23,-6.03 -21.65,-3.42 -27.68,5.81 -6.03,9.23 -3.42,21.65 5.81,27.68 9.23,6.03 21.65,3.42 27.68,-5.81 l 11.18,7.3 c -6.39,9.79 -17.08,15.12 -27.98,15.12 z"
   id="path10" />
	<rect
   x="115.97"
   y="37.310001"
   class="st0"
   width="29.719999"
   height="13.36"
   id="rect12" />
	<g
   id="g16">
		<polygon
   class="st1"
   points="173.18,94.74 204.94,94.74 189.06,67.24 "
   id="polygon14" />
	</g>
</g>
<g
   id="g88"
   transform="matrix(0.43251175,0,0,0.47278445,-4.5500236,-5.0305314)">
	<g
   id="g86">
		<path
   class="st1"
   d="m 11.85,86.64 h 2.82 v 13.02 h -2.82 z"
   id="path20" />
		<path
   class="st1"
   d="m 29.78,86.64 v 13.02 h -2.36 l -5.9,-8.14 v 8.14 H 18.76 V 86.64 h 2.54 l 5.71,7.94 v -7.94 z"
   id="path22" />
		<path
   class="st1"
   d="m 33.14,95.44 h 2.84 c 0,1.26 1.04,1.87 2.19,1.87 1.06,0 2.1,-0.56 2.1,-1.53 0,-1.01 -1.19,-1.29 -2.6,-1.62 -1.96,-0.48 -4.35,-1.05 -4.35,-3.86 0,-2.5 1.84,-3.9 4.72,-3.9 2.99,0 4.69,1.6 4.69,4.19 h -2.78 c 0,-1.12 -0.92,-1.65 -1.98,-1.65 -0.91,0 -1.84,0.39 -1.84,1.24 0,0.92 1.13,1.19 2.51,1.52 1.98,0.5 4.48,1.12 4.48,4.04 0,2.81 -2.24,4.18 -4.94,4.18 -2.98,0 -5.04,-1.68 -5.04,-4.48 z"
   id="path24" />
		<path
   class="st1"
   d="M 55.23,89.26 H 51.61 V 99.67 H 48.79 V 89.26 h -3.62 v -2.61 h 10.06 z"
   id="path26" />
		<path
   class="st1"
   d="m 58.23,86.64 h 2.82 v 13.02 h -2.82 z"
   id="path28" />
		<path
   class="st1"
   d="M 74.12,89.26 H 70.5 V 99.67 H 67.68 V 89.26 h -3.62 v -2.61 h 10.06 z"
   id="path30" />
		<path
   class="st1"
   d="m 76.99,94.76 v -8.12 h 2.82 v 7.99 c 0,1.63 1.06,2.66 2.56,2.66 1.5,0 2.56,-1.03 2.56,-2.66 v -7.99 h 2.82 v 8.12 c 0,3.05 -2.3,5.18 -5.38,5.18 -3.08,0.01 -5.38,-2.12 -5.38,-5.18 z"
   id="path32" />
		<path
   class="st1"
   d="M 100.67,89.26 H 97.05 V 99.67 H 94.23 V 89.26 h -3.62 v -2.61 h 10.06 z"
   id="path34" />
		<path
   class="st1"
   d="m 11.72,112.76 v -8.12 h 2.82 v 7.99 c 0,1.63 1.06,2.66 2.56,2.66 1.5,0 2.56,-1.03 2.56,-2.66 v -7.99 h 2.82 v 8.12 c 0,3.05 -2.3,5.18 -5.38,5.18 -3.08,0.01 -5.38,-2.12 -5.38,-5.18 z"
   id="path36" />
		<path
   class="st1"
   d="m 31.05,113.22 h -1.81 v 4.44 h -2.82 v -13.02 h 5.26 c 2.61,0 4.55,1.8 4.55,4.31 0,1.7 -0.93,3.1 -2.37,3.79 l 2.88,4.92 H 33.6 Z m -1.8,-2.6 h 2.25 c 1.18,0 1.88,-0.71 1.88,-1.69 0,-0.97 -0.7,-1.69 -1.88,-1.69 h -2.25 z"
   id="path38" />
		<path
   class="st1"
   d="m 49.47,113.91 c 0,2.09 -1.84,3.76 -4.1,3.76 h -5.53 v -13.02 h 5.38 c 2.25,0 3.91,1.43 3.91,3.35 0,1.12 -0.55,2.16 -1.47,2.8 1.16,0.6 1.81,1.73 1.81,3.11 z m -2.83,-0.3 c 0,-0.84 -0.61,-1.45 -1.54,-1.45 h -2.5 v 2.92 h 2.5 c 0.93,0 1.54,-0.61 1.54,-1.47 z m -1.69,-6.57 H 42.6 v 2.78 h 2.35 c 0.89,0 1.45,-0.58 1.45,-1.39 0,-0.82 -0.56,-1.39 -1.45,-1.39 z"
   id="path40" />
		<path
   class="st1"
   d="m 60.33,115.19 h -5.18 l -0.89,2.47 h -2.99 l 5.1,-13.02 h 2.66 l 5.27,13.02 h -3.06 z m -4.3,-2.45 h 3.42 l -1.72,-4.66 z"
   id="path42" />
		<path
   class="st1"
   d="m 78.08,104.64 v 13.02 h -2.36 l -5.9,-8.14 v 8.14 h -2.76 v -13.02 h 2.54 l 5.71,7.94 v -7.94 z"
   id="path44" />
		<path
   class="st1"
   d="m 82.16,104.64 h 2.82 v 13.02 h -2.82 z"
   id="path46" />
		<path
   class="st1"
   d="m 88.35,113.44 h 2.84 c 0,1.26 1.04,1.87 2.19,1.87 1.06,0 2.1,-0.56 2.1,-1.53 0,-1.01 -1.19,-1.29 -2.6,-1.62 -1.96,-0.48 -4.35,-1.05 -4.35,-3.86 0,-2.5 1.84,-3.9 4.72,-3.9 2.99,0 4.69,1.6 4.69,4.19 h -2.78 c 0,-1.12 -0.92,-1.65 -1.98,-1.65 -0.91,0 -1.84,0.39 -1.84,1.24 0,0.92 1.13,1.19 2.51,1.52 1.98,0.5 4.48,1.12 4.48,4.04 0,2.81 -2.24,4.18 -4.94,4.18 -2.98,0 -5.04,-1.68 -5.04,-4.48 z"
   id="path48" />
		<path
   class="st1"
   d="m 114.79,117.66 -1.28,-8.5 -3.88,8.47 h -0.69 l -3.88,-8.47 -1.29,8.5 h -2.87 l 2.04,-13.02 h 2.82 l 3.52,7.98 3.54,-7.98 h 2.83 l 2.02,13.02 z"
   id="path50" />
		<path
   class="st1"
   d="m 128.97,115.04 v 2.62 h -8.02 v -13.02 h 7.82 v 2.6 h -5 v 2.57 h 4.52 v 2.55 h -4.52 v 2.67 h 5.2 z"
   id="path52" />
		<path
   class="st1"
   d="m 24.49,128.86 c -0.01,4.08 -2.74,7.08 -6.65,7.08 -3.83,0 -6.74,-2.88 -6.74,-6.78 0,-3.9 2.84,-6.81 6.69,-6.81 3.23,0 5.92,2.05 6.53,4.96 h -2.9 c -0.56,-1.4 -1.94,-2.27 -3.57,-2.27 -2.31,0 -3.89,1.68 -3.89,4.12 0,2.41 1.54,4.09 3.89,4.09 1.68,0 3.14,-0.89 3.62,-2.23 h -3.9 v -2.16 z"
   id="path54" />
		<path
   class="st1"
   d="m 35.81,133.04 v 2.62 h -8.02 v -13.02 h 7.82 v 2.6 h -5 v 2.57 h 4.52 v 2.55 H 30.6 v 2.67 h 5.21 z m -3.17,-11.65 h -2.05 l 1.03,-2.64 h 2.89 z"
   id="path56" />
		<path
   class="st1"
   d="m 38.32,129.15 c 0,-3.87 2.97,-6.79 6.95,-6.79 3.96,0 6.92,2.91 6.92,6.79 0,3.88 -2.96,6.79 -6.92,6.79 -3.97,0.01 -6.95,-2.92 -6.95,-6.79 z m 11.02,0 c 0,-2.36 -1.74,-4.14 -4.06,-4.14 -2.32,0 -4.09,1.79 -4.09,4.14 0,2.35 1.77,4.14 4.09,4.14 2.31,0 4.06,-1.77 4.06,-4.14 z"
   id="path58" />
		<path
   class="st1"
   d="m 68.15,128.86 c -0.01,4.08 -2.74,7.08 -6.65,7.08 -3.83,0 -6.74,-2.88 -6.74,-6.78 0,-3.9 2.84,-6.81 6.69,-6.81 3.23,0 5.92,2.05 6.53,4.96 h -2.9 c -0.56,-1.4 -1.94,-2.27 -3.57,-2.27 -2.31,0 -3.89,1.68 -3.89,4.12 0,2.41 1.54,4.09 3.89,4.09 1.68,0 3.14,-0.89 3.62,-2.23 h -3.9 v -2.16 z"
   id="path60" />
		<path
   class="st1"
   d="m 76.07,131.22 h -1.81 v 4.44 h -2.82 v -13.02 h 5.26 c 2.61,0 4.55,1.8 4.55,4.31 0,1.7 -0.93,3.1 -2.37,3.79 l 2.88,4.92 h -3.15 z m -1.8,-2.6 h 2.25 c 1.18,0 1.88,-0.71 1.88,-1.69 0,-0.97 -0.7,-1.69 -1.88,-1.69 h -2.25 z"
   id="path62" />
		<path
   class="st1"
   d="M 92.48,133.19 H 87.3 l -0.89,2.47 h -2.99 l 5.1,-13.02 h 2.66 l 5.27,13.02 h -3.06 z m -4.3,-2.45 h 3.42 l -1.72,-4.66 z"
   id="path64" />
		<path
   class="st1"
   d="m 108.82,127.12 c 0,2.57 -1.98,4.48 -4.6,4.48 h -2.19 v 4.06 h -2.82 v -13.02 h 5.01 c 2.61,0 4.6,1.91 4.6,4.48 z m -2.85,0 c 0,-1.08 -0.75,-1.87 -1.87,-1.87 h -2.07 v 3.74 h 2.07 c 1.12,0 1.87,-0.79 1.87,-1.87 z"
   id="path66" />
		<path
   class="st1"
   d="m 122.43,122.64 v 13.02 h -2.82 v -5.38 h -4.9 v 5.38 h -2.82 v -13.02 h 2.82 v 5.02 h 4.9 v -5.02 z"
   id="path68" />
		<path
   class="st1"
   d="m 126.53,122.64 h 2.82 v 13.02 h -2.82 z"
   id="path70" />
		<path
   class="st1"
   d="m 141.47,133.04 v 2.62 h -8.02 v -13.02 h 7.82 v 2.6 h -5 v 2.57 h 4.52 v 2.55 h -4.52 v 2.67 h 5.2 z"
   id="path72" />
		<path
   class="st1"
   d="M 19.58,151.19 H 14.4 l -0.89,2.47 h -2.99 l 5.1,-13.02 h 2.66 l 5.27,13.02 h -3.06 z m -4.3,-2.45 h 3.42 l -1.72,-4.66 z"
   id="path74" />
		<path
   class="st1"
   d="m 34.13,151.05 v 2.61 h -7.81 v -13.02 h 2.82 v 10.41 z"
   id="path76" />
		<path
   class="st1"
   d="m 46.75,145.12 c 0,2.57 -1.98,4.48 -4.6,4.48 h -2.19 v 4.06 h -2.82 v -13.02 h 5.01 c 2.61,0 4.6,1.91 4.6,4.48 z m -2.86,0 c 0,-1.08 -0.75,-1.87 -1.87,-1.87 h -2.07 v 3.74 h 2.07 c 1.12,0 1.87,-0.79 1.87,-1.87 z"
   id="path78" />
		<path
   class="st1"
   d="m 49.82,140.64 h 2.82 v 13.02 h -2.82 z"
   id="path80" />
		<path
   class="st1"
   d="m 67.76,140.64 v 13.02 H 65.4 l -5.9,-8.14 v 8.14 h -2.76 v -13.02 h 2.54 l 5.71,7.94 v -7.94 z"
   id="path82" />
		<path
   class="st1"
   d="m 79.86,151.04 v 2.62 h -8.02 v -13.02 h 7.82 v 2.6 h -5 v 2.57 h 4.52 v 2.55 h -4.52 v 2.67 h 5.2 z"
   id="path84" />
	</g>
</g>
<g
   id="g136"
   transform="matrix(0.43251175,0,0,0.47278445,-4.5500236,-5.0305314)">
	<path
   class="st0"
   d="m 151.83,113.85 v -6.04 h 2.1 v 5.94 c 0,1.21 0.79,1.97 1.9,1.97 1.11,0 1.9,-0.77 1.9,-1.97 v -5.94 h 2.1 v 6.04 c 0,2.27 -1.71,3.85 -4,3.85 -2.29,0.01 -4,-1.58 -4,-3.85 z"
   id="path90" />
	<path
   class="st0"
   d="m 168.66,112.97 v 4.52 h -2.02 v -4.2 c 0,-1.13 -0.43,-1.67 -1.3,-1.67 -1.04,0 -1.67,0.75 -1.67,1.95 v 3.92 h -2.02 v -7.46 h 1.38 l 0.39,0.92 c 0.57,-0.67 1.46,-1.1 2.47,-1.1 1.71,0 2.77,1.23 2.77,3.12 z"
   id="path92" />
	<path
   class="st0"
   d="m 170.5,110.03 h 2.02 v 7.46 h -2.02 z m 0.01,-2.87 h 2.01 v 1.88 h -2.01 z"
   id="path94" />
	<path
   class="st0"
   d="m 181.44,110.03 -2.97,7.46 h -1.86 l -3.04,-7.46 h 2.15 l 1.83,5 1.79,-5 z"
   id="path96" />
	<path
   class="st0"
   d="m 189.5,113.74 c 0,0.2 -0.01,0.39 -0.04,0.59 h -5.65 c 0.18,1.02 0.85,1.58 1.82,1.58 0.7,0 1.28,-0.33 1.58,-0.87 h 2.12 c -0.54,1.63 -1.97,2.66 -3.71,2.66 -2.2,0 -3.87,-1.71 -3.87,-3.94 0,-2.25 1.66,-3.94 3.87,-3.94 2.3,0 3.88,1.76 3.88,3.92 z m -5.64,-0.79 h 3.62 c -0.29,-0.91 -0.94,-1.41 -1.85,-1.41 -0.9,0 -1.53,0.52 -1.77,1.41 z"
   id="path98" />
	<path
   class="st0"
   d="m 195.41,109.99 v 1.9 h -0.88 c -1.14,0 -1.59,0.5 -1.59,1.72 v 3.88 h -2.02 v -7.46 h 1.29 l 0.36,0.91 c 0.53,-0.66 1.21,-0.96 2.17,-0.96 h 0.67 z"
   id="path100" />
	<path
   class="st0"
   d="m 196.01,115.04 h 1.97 c 0.01,0.67 0.52,1 1.24,1 0.56,0 1.06,-0.25 1.06,-0.75 0,-0.51 -0.65,-0.67 -1.44,-0.8 -1.19,-0.2 -2.71,-0.52 -2.71,-2.28 0,-1.41 1.2,-2.39 3,-2.39 1.8,0 2.99,1 2.99,2.5 h -1.92 c -0.01,-0.59 -0.42,-0.89 -1.13,-0.89 -0.63,0 -1,0.29 -1,0.71 0,0.5 0.64,0.61 1.41,0.75 1.22,0.22 2.77,0.48 2.77,2.29 0,1.52 -1.25,2.51 -3.13,2.51 -1.85,0.02 -3.1,-1.05 -3.11,-2.65 z"
   id="path102" />
	<path
   class="st0"
   d="m 203.75,110.03 h 2.02 v 7.46 h -2.02 z m 0.01,-2.87 h 2.01 v 1.88 h -2.01 z"
   id="path104" />
	<path
   class="st0"
   d="m 212.27,115.7 v 1.8 h -1.43 c -1.64,0 -2.65,-1.01 -2.65,-2.67 v -3.18 h -1.35 v -0.44 l 2.95,-3.13 h 0.39 v 1.95 h 2.06 v 1.62 h -2.03 v 2.91 c 0,0.72 0.42,1.14 1.15,1.14 z"
   id="path106" />
	<path
   class="st0"
   d="m 220.78,114.33 h -5.65 c 0.18,1.02 0.85,1.58 1.82,1.58 0.7,0 1.28,-0.33 1.58,-0.87 h 2.12 c -0.54,1.63 -1.97,2.66 -3.7,2.66 -2.21,0 -3.87,-1.71 -3.87,-3.94 0,-2.25 1.66,-3.94 3.87,-3.94 2.29,0 3.86,1.77 3.86,3.92 0.01,0.19 0,0.39 -0.03,0.59 z m -5.59,-1.38 h 3.62 c -0.29,-0.91 -0.94,-1.41 -1.85,-1.41 -0.9,0 -1.54,0.52 -1.77,1.41 z m 2.37,-3.75 h -1.53 l 0.75,-2.1 h 2.15 z"
   id="path108" />
	<path
   class="st0"
   d="m 161.33,127.18 c -0.01,3.03 -2.04,5.26 -4.94,5.26 -2.85,0 -5.01,-2.14 -5.01,-5.04 0,-2.9 2.11,-5.06 4.97,-5.06 2.4,0 4.4,1.52 4.85,3.69 h -2.16 c -0.42,-1.04 -1.44,-1.69 -2.66,-1.69 -1.71,0 -2.89,1.25 -2.89,3.06 0,1.79 1.15,3.04 2.89,3.04 1.25,0 2.34,-0.66 2.69,-1.66 h -2.9 v -1.61 h 5.16 z"
   id="path110" />
	<path
   class="st0"
   d="m 167.23,124.73 v 1.9 h -0.88 c -1.14,0 -1.59,0.5 -1.59,1.72 v 3.88 h -2.02 v -7.46 h 1.29 l 0.36,0.91 c 0.53,-0.66 1.21,-0.96 2.17,-0.96 h 0.67 z"
   id="path112" />
	<path
   class="st0"
   d="m 175.42,129.07 h -5.65 c 0.18,1.02 0.85,1.58 1.82,1.58 0.7,0 1.28,-0.33 1.58,-0.87 h 2.12 c -0.54,1.63 -1.97,2.66 -3.71,2.66 -2.2,0 -3.87,-1.71 -3.87,-3.94 0,-2.25 1.66,-3.94 3.87,-3.94 2.29,0 3.87,1.77 3.87,3.92 0.01,0.19 -0.01,0.39 -0.03,0.59 z m -5.6,-1.38 h 3.62 c -0.29,-0.91 -0.94,-1.41 -1.85,-1.41 -0.9,0 -1.54,0.52 -1.77,1.41 z"
   id="path114" />
	<path
   class="st0"
   d="m 183.9,127.71 v 4.52 h -2.02 v -4.2 c 0,-1.13 -0.43,-1.67 -1.3,-1.67 -1.04,0 -1.67,0.75 -1.67,1.95 v 3.92 h -2.02 v -7.46 h 1.38 l 0.39,0.92 c 0.57,-0.67 1.46,-1.1 2.47,-1.1 1.71,0 2.77,1.23 2.77,3.12 z"
   id="path116" />
	<path
   class="st0"
   d="m 185.25,128.5 c 0,-2.26 1.72,-3.94 4.04,-3.94 2.3,0 4.04,1.68 4.04,3.94 0,2.25 -1.73,3.94 -4.04,3.94 -2.31,0 -4.04,-1.69 -4.04,-3.94 z m 6.03,0 c 0,-1.21 -0.83,-2.05 -1.99,-2.05 -1.16,0 -1.99,0.84 -1.99,2.05 0,1.21 0.83,2.05 1.99,2.05 1.16,0 1.99,-0.84 1.99,-2.05 z"
   id="path118" />
	<path
   class="st0"
   d="m 202.76,128.5 c 0,2.26 -1.65,3.94 -3.92,3.94 -0.91,0 -1.71,-0.31 -2.34,-0.83 l -0.24,0.62 h -1.49 v -10.16 h 2.02 v 3.09 c 0.58,-0.39 1.28,-0.62 2.05,-0.62 2.27,0.02 3.92,1.7 3.92,3.96 z m -2.06,0 c 0,-1.17 -0.86,-2.05 -2.03,-2.05 -1.17,0 -2.03,0.88 -2.03,2.05 0,1.16 0.86,2.03 2.03,2.03 1.17,0 2.03,-0.87 2.03,-2.03 z"
   id="path120" />
	<path
   class="st0"
   d="m 204.21,122.08 h 2.02 v 10.16 h -2.02 z"
   id="path122" />
	<path
   class="st0"
   d="m 215.37,129.07 h -5.65 c 0.18,1.02 0.85,1.58 1.82,1.58 0.7,0 1.28,-0.33 1.58,-0.87 h 2.12 c -0.54,1.63 -1.97,2.66 -3.71,2.66 -2.2,0 -3.87,-1.71 -3.87,-3.94 0,-2.25 1.66,-3.94 3.87,-3.94 2.29,0 3.87,1.77 3.87,3.92 0.01,0.19 -0.01,0.39 -0.03,0.59 z m -5.6,-1.38 h 3.62 c -0.29,-0.91 -0.94,-1.41 -1.85,-1.41 -0.9,0 -1.54,0.52 -1.77,1.41 z"
   id="path124" />
	<path
   class="st0"
   d="m 225.67,130.4 h -3.85 l -0.66,1.83 h -2.22 l 3.79,-9.68 h 1.98 l 3.91,9.68 h -2.27 z m -3.2,-1.83 h 2.54 l -1.28,-3.46 z"
   id="path126" />
	<path
   class="st0"
   d="m 229.7,122.08 h 2.02 v 10.16 h -2.02 z"
   id="path128" />
	<path
   class="st0"
   d="m 241.64,128.5 c 0,2.26 -1.66,3.96 -3.91,3.96 -0.77,0 -1.48,-0.23 -2.05,-0.63 v 3.1 h -2.02 v -10.16 h 1.33 l 0.34,0.68 c 0.63,-0.56 1.46,-0.89 2.39,-0.89 2.25,0 3.92,1.68 3.92,3.94 z m -2.05,0 c 0,-1.17 -0.86,-2.05 -2.03,-2.05 -1.17,0 -2.03,0.88 -2.03,2.05 0,1.17 0.86,2.05 2.03,2.05 1.17,0 2.03,-0.88 2.03,-2.05 z"
   id="path130" />
	<path
   class="st0"
   d="m 250.29,129.07 h -5.65 c 0.18,1.02 0.85,1.58 1.82,1.58 0.7,0 1.28,-0.33 1.58,-0.87 h 2.12 c -0.54,1.63 -1.97,2.66 -3.71,2.66 -2.2,0 -3.87,-1.71 -3.87,-3.94 0,-2.25 1.66,-3.94 3.87,-3.94 2.29,0 3.87,1.77 3.87,3.92 0.01,0.19 -0.01,0.39 -0.03,0.59 z m -5.6,-1.38 h 3.62 c -0.29,-0.91 -0.94,-1.41 -1.85,-1.41 -0.9,0 -1.54,0.52 -1.77,1.41 z"
   id="path132" />
	<path
   class="st0"
   d="m 251.27,129.77 h 1.97 c 0.01,0.67 0.52,1 1.24,1 0.56,0 1.06,-0.25 1.06,-0.75 0,-0.51 -0.65,-0.67 -1.44,-0.8 -1.19,-0.2 -2.71,-0.52 -2.71,-2.28 0,-1.41 1.2,-2.39 3,-2.39 1.8,0 2.99,1 2.99,2.5 h -1.92 c -0.01,-0.59 -0.42,-0.89 -1.13,-0.89 -0.63,0 -1,0.29 -1,0.71 0,0.5 0.64,0.61 1.41,0.75 1.22,0.22 2.77,0.48 2.77,2.29 0,1.52 -1.25,2.51 -3.13,2.51 -1.84,0.02 -3.1,-1.04 -3.11,-2.65 z"
   id="path134" />
</g>
</svg>
