<?xml version="1.0" encoding="UTF-8" standalone="no"?>
<!-- Created with Inkscape (http://www.inkscape.org/) -->

<svg
   width="94.560867mm"
   height="23.522236mm"
   viewBox="0 0 94.560867 23.522236"
   version="1.1"
   id="svg1065"
   xmlns="http://www.w3.org/2000/svg"
   xmlns:svg="http://www.w3.org/2000/svg">
  <defs
     id="defs1062" />
  <g
     id="layer1"
     transform="translate(-108.05589,-151.5509)">
    <g
       id="g1066"
       transform="matrix(0.28222223,0,0,0.28222223,342.68806,387.99863)">
      <g
         aria-label="INNOVATION ▪ OUTILS ▪ PROJETS ▪ TERRITOIRES "
         id="text2841-4-5-9-3-0-3"
         style="font-style:italic;font-size:12px;line-height:0%;font-family:'Bitstream Vera Sans';-inkscape-font-specification:'AlArabiya Italic'">
        <g
           id="g4890">
          <path
             id="path6801-5-3-3"
             d="m -534.71238,-827.32146 5.4574,5.9173"
             style="color:#000000;display:inline;overflow:visible;visibility:visible;fill:none;stroke:#f9875a;stroke-width:3.61443;stroke-linecap:round;stroke-linejoin:round;stroke-miterlimit:4;stroke-dasharray:none;stroke-dashoffset:0;stroke-opacity:1;marker:none;enable-background:accumulate"
             transform="translate(-2.5836615e-6)" />
          <path
             id="path6801-9-8-4-7-6"
             d="m -519.96903,-800.746 0.1288,8.58922"
             style="color:#000000;display:inline;overflow:visible;visibility:visible;fill:none;stroke:#d9d142;stroke-width:3.61443;stroke-linecap:round;stroke-linejoin:round;stroke-miterlimit:4;stroke-dasharray:none;stroke-dashoffset:0;stroke-opacity:1;marker:none;enable-background:accumulate"
             transform="translate(-2.5836615e-6)" />
          <path
             id="path6801-9-0-2-5-7"
             d="m -514.14323,-810.6988 14.15478,3.81056"
             style="color:#000000;display:inline;overflow:visible;visibility:visible;fill:none;stroke:#7e9eb3;stroke-width:3.61443;stroke-linecap:round;stroke-linejoin:round;stroke-miterlimit:4;stroke-dasharray:none;stroke-dashoffset:0;stroke-opacity:1;marker:none;enable-background:accumulate"
             transform="translate(-2.5836615e-6)" />
          <path
             id="path6801-9-1-0-4-53"
             d="m -506.9693,-827.71568 -5.20077,5.48191"
             style="color:#000000;display:inline;overflow:visible;visibility:visible;fill:none;stroke:#34a162;stroke-width:3.61443;stroke-linecap:round;stroke-linejoin:round;stroke-miterlimit:4;stroke-dasharray:none;stroke-dashoffset:0;stroke-opacity:1;marker:none;enable-background:accumulate"
             transform="translate(-2.5836615e-6)" />
          <g
             aria-label="intermezzo"
             id="text3930-3-3-5-6-4-1-0-23-1-7-0-3-7-5-5-2-5"
             style="font-weight:bold;font-size:12px;line-height:0%;font-family:'TeX Gyre Adventor';-inkscape-font-specification:'TeX Gyre Adventor';letter-spacing:0px;word-spacing:0px;baseline-shift:baseline;display:inline;overflow:visible;fill:#318286;marker:none;enable-background:accumulate"
             transform="translate(-2.5836615e-6)">
            <path
               d="m -831.16528,-810.79855 h 4.74395 q 1.84486,0 3.16262,1.31776 1.31777,1.31776 1.31777,3.16263 v 30.57207 h -9.22434 z m 0,-10.27855 h 4.74395 q 1.84486,0 3.16262,1.31777 1.31777,1.31776 1.31777,3.16262 v 2.7673 h -9.22434 z"
               style="font-size:67.4694px;line-height:125%;font-family:Harabara;-inkscape-font-specification:'Harabara Bold';baseline-shift:baseline;display:inline;overflow:visible;enable-background:accumulate"
               id="path839" />
            <path
               d="m -790.97354,-775.74609 h -4.61217 q -1.97664,0 -3.2944,-1.18599 -1.18599,-1.31776 -1.18599,-3.2944 v 0 -17.92156 q 0,-3.16263 -1.97664,-4.61217 -1.84487,-1.44954 -4.21684,-1.44954 -2.37197,0 -4.21684,1.44954 -1.84486,1.44954 -1.84486,4.61217 v 22.40195 h -9.22434 v -20.55709 q 0,-8.96078 4.61217,-11.99163 4.74394,-3.03085 10.41032,-3.2944 5.79815,0 10.67387,3.03085 4.87572,3.03085 4.87572,12.25518 z"
               style="font-size:67.4694px;line-height:125%;font-family:Harabara;-inkscape-font-specification:'Harabara Bold';baseline-shift:baseline;display:inline;overflow:visible;enable-background:accumulate"
               id="path841" />
            <path
               d="m -773.97442,-775.74609 q -4.34861,0.26355 -9.48788,-0.13178 -5.0075,-0.39533 -5.0075,-6.45703 v -38.7422 h 4.74395 q 1.71309,0 3.03085,1.31777 1.31776,1.31776 1.31776,3.16262 v 5.92993 h 5.40282 v 1.84487 q 0,1.97664 -1.31776,3.2944 -1.31776,1.18599 -3.16263,1.18599 h -0.92243 v 19.50287 q 0,2.2402 2.63552,2.2402 h 2.7673 z"
               style="font-size:67.4694px;line-height:125%;font-family:Harabara;-inkscape-font-specification:'Harabara Bold';baseline-shift:baseline;display:inline;overflow:visible;enable-background:accumulate"
               id="path843" />
            <path
               d="m -748.80517,-786.55174 h 6.58881 q -1.44954,5.5346 -5.5346,8.43368 -4.08506,3.03085 -10.27854,3.03085 -7.51124,0 -11.72808,-4.87572 -4.21684,-4.74394 -4.21684,-13.57295 0,-8.43367 4.08506,-13.17761 4.21684,-4.87572 11.72808,-4.87572 7.90657,0 12.25519,4.74394 4.21683,4.87572 4.21683,13.57295 0,0.5271 0,0.92243 0,0.39533 0,0.5271 0,0.65888 -0.13177,0.92244 h -22.79728 q 0.13178,4.08506 1.97664,6.0617 1.71309,2.10842 5.13927,2.10842 2.2402,0 3.82151,-0.92243 0.39533,-0.13178 0.65888,-0.39533 0.39533,-0.39533 0.79066,-0.79066 0.13178,-0.39533 0.92243,-1.05421 0.92244,-0.65888 2.50375,-0.65888 z m -15.81314,-10.27854 h 13.44117 q -0.26355,-3.55796 -1.84487,-5.27105 -1.71309,-1.84486 -4.87572,-1.84486 -2.89907,0 -4.74394,1.84486 -1.84486,1.84487 -1.97664,5.27105 z"
               style="font-size:67.4694px;line-height:125%;font-family:Harabara;-inkscape-font-specification:'Harabara Bold';baseline-shift:baseline;display:inline;overflow:visible;enable-background:accumulate"
               id="path845" />
            <path
               d="m -740.23972,-775.74609 v -16.99913 q 0,-5.13927 1.44954,-8.56545 1.58132,-3.55796 4.21684,-5.66638 2.50375,-1.97664 5.79815,-2.89907 3.42618,-0.92243 6.98414,-0.92243 0.26355,0 0.65888,0 0.39533,0 0.65888,0 v 9.3561 h -3.03085 q -3.82151,0 -5.66638,1.84487 -1.84486,1.84487 -1.84486,5.79815 v 18.05334 z"
               style="font-size:67.4694px;line-height:125%;font-family:Harabara;-inkscape-font-specification:'Harabara Bold';baseline-shift:baseline;display:inline;overflow:visible;enable-background:accumulate"
               id="path847" />
            <path
               d="m -688.97879,-775.74609 h -9.09255 v -20.55709 -1.84486 q 0,-3.16263 -1.97664,-4.61217 -1.84487,-1.44954 -4.21684,-1.44954 -2.37197,0 -4.21684,1.44954 -1.84487,1.44954 -1.84487,4.61217 v 22.40195 h -9.22433 v -20.55709 q 0,-8.96078 4.61217,-11.99163 4.74394,-3.03085 10.41032,-3.2944 3.03085,0 5.92992,0.65888 2.89908,0.65888 5.27105,2.63552 1.97664,-1.71309 4.61217,-2.37197 2.7673,-0.79066 5.66637,-0.92243 5.79815,0 10.67387,3.03085 4.87572,3.03085 4.87572,12.25518 v 20.55709 h -4.61217 q -1.97664,0 -3.2944,-1.18599 -1.18599,-1.31776 -1.18599,-3.2944 v 0 -17.92156 q 0,-3.16263 -1.97664,-4.61217 -1.84487,-1.44954 -4.21684,-1.44954 -2.37197,0 -4.34861,1.44954 -1.84487,1.44954 -1.84487,4.61217 v 1.84486 z"
               style="font-size:67.4694px;line-height:125%;font-family:Harabara;-inkscape-font-specification:'Harabara Bold';baseline-shift:baseline;display:inline;overflow:visible;enable-background:accumulate"
               id="path849" />
            <path
               d="m -640.61694,-786.55174 h 6.58881 q -1.44954,5.5346 -5.5346,8.43368 -4.08506,3.03085 -10.27854,3.03085 -7.51124,0 -11.72808,-4.87572 -4.21684,-4.74394 -4.21684,-13.57295 0,-8.43367 4.08507,-13.17761 4.21683,-4.87572 11.72807,-4.87572 7.90657,0 12.25519,4.74394 4.21684,4.87572 4.21684,13.57295 0,0.5271 0,0.92243 0,0.39533 0,0.5271 0,0.65888 -0.13178,0.92244 h -22.79728 q 0.13178,4.08506 1.97664,6.0617 1.71309,2.10842 5.13927,2.10842 2.2402,0 3.82151,-0.92243 0.39533,-0.13178 0.65888,-0.39533 0.39533,-0.39533 0.79066,-0.79066 0.13178,-0.39533 0.92243,-1.05421 0.92244,-0.65888 2.50375,-0.65888 z m -15.81314,-10.27854 h 13.44117 q -0.26355,-3.55796 -1.84487,-5.27105 -1.71309,-1.84486 -4.87571,-1.84486 -2.89908,0 -4.74395,1.84486 -1.84486,1.84487 -1.97664,5.27105 z"
               style="font-size:67.4694px;line-height:125%;font-family:Harabara;-inkscape-font-specification:'Harabara Bold';baseline-shift:baseline;display:inline;overflow:visible;enable-background:accumulate"
               id="path851" />
            <path
               d="m -632.05148,-775.74609 v -6.98414 l 18.84399,-20.82064 h -13.30939 q -1.84487,0 -3.16263,-1.18598 -1.31776,-1.31776 -1.31776,-3.16263 v -2.89907 h 28.7272 v 7.51124 l -18.58044,19.8982 h 19.23932 v 7.64302 z"
               style="font-size:67.4694px;line-height:125%;font-family:Harabara;-inkscape-font-specification:'Harabara Bold';baseline-shift:baseline;display:inline;overflow:visible;enable-background:accumulate"
               id="path853" />
            <path
               d="m -600.16165,-775.74609 v -6.98414 l 18.84399,-20.82064 h -13.30939 q -1.84487,0 -3.16263,-1.18598 -1.31776,-1.31776 -1.31776,-3.16263 v -2.89907 h 28.7272 v 7.51124 l -18.58044,19.8982 h 19.23932 v 7.64302 z"
               style="font-size:67.4694px;line-height:125%;font-family:Harabara;-inkscape-font-specification:'Harabara Bold';baseline-shift:baseline;display:inline;overflow:visible;enable-background:accumulate"
               id="path855" />
            <path
               d="m -563.92321,-778.90872 q -2.7673,-2.37197 -3.95328,-6.32526 -1.18599,-4.08506 -1.18599,-8.43367 0,-3.55796 0.92244,-7.11592 1.05421,-3.55795 3.16262,-5.92992 3.42618,-3.95329 8.82901,-4.61217 5.40282,-0.79066 9.75143,0.79066 5.0075,1.97664 7.37947,6.85236 2.24019,4.34861 2.24019,10.14676 0,4.21684 -0.92243,7.24769 -0.92243,3.03085 -2.37197,5.13927 -3.16263,4.34862 -8.03835,5.40283 -4.34861,1.18598 -8.829,0.13177 -4.34861,-0.92243 -6.98414,-3.2944 z m 6.32526,-23.19261 q -2.7673,3.03085 -2.50375,9.09256 0.26355,5.92993 2.2402,8.3019 0.79065,1.05421 2.7673,1.84486 1.97664,0.65888 3.95328,0.13178 2.10842,-0.65888 3.68973,-3.03085 1.58132,-2.37197 1.71309,-7.64302 0,-4.74394 -1.58131,-7.11591 -1.44954,-2.37197 -3.42618,-3.03086 -1.97664,-0.65888 -3.95328,0 -1.97665,0.52711 -2.89908,1.44954 z"
               style="font-size:67.4694px;line-height:125%;font-family:Harabara;-inkscape-font-specification:'Harabara Bold';baseline-shift:baseline;display:inline;overflow:visible;enable-background:accumulate"
               id="path857" />
          </g>
          <path
             transform="rotate(14.476927,5.3919539e-6,-1.1019895e-5)"
             id="path6758-3-3-2"
             style="color:#000000;display:inline;overflow:visible;visibility:visible;fill:#b4cdca;fill-opacity:1;fill-rule:nonzero;stroke:#ffffff;stroke-width:1.96975;stroke-linecap:round;stroke-linejoin:round;stroke-miterlimit:4;stroke-dasharray:none;stroke-dashoffset:0;stroke-opacity:1;marker:none;enable-background:accumulate"
             d="m -696.09728,-657.27222 a 11.379042,11.379042 0 0 1 -11.37575,11.37904 11.379042,11.379042 0 0 1 -11.38233,-11.37246 11.379042,11.379042 0 0 1 11.36917,-11.38561 11.379042,11.379042 0 0 1 11.38891,11.36587" />
          <path
             transform="rotate(14.476928,5.3919538e-6,-1.1019894e-5)"
             id="path6760-3-7-9"
             style="color:#000000;display:inline;overflow:visible;visibility:visible;fill:#f9875a;fill-opacity:1;fill-rule:nonzero;stroke:none;stroke-width:0.970053;marker:none;enable-background:accumulate"
             d="m -719.82852,-669.60614 a 6.782011,6.782011 0 0 1 -6.78005,6.78201 6.782011,6.782011 0 0 1 -6.78397,-6.77809 6.782011,6.782011 0 0 1 6.77612,-6.78593 6.782011,6.782011 0 0 1 6.78789,6.77417" />
          <path
             id="path6760-9-3-4-1"
             style="color:#000000;display:inline;overflow:visible;visibility:visible;fill:#34a162;fill-opacity:1;fill-rule:nonzero;stroke:none;stroke-width:0.970053;marker:none;enable-background:accumulate"
             transform="rotate(14.476928,5.3919538e-6,-1.1019894e-5)"
             d="m -688.34035,-677.19006 a 8.0323944,8.0323944 0 0 1 -8.03007,8.03239 8.0323944,8.0323944 0 0 1 -8.03471,-8.02775 8.0323944,8.0323944 0 0 1 8.02542,-8.03703 8.0323944,8.0323944 0 0 1 8.03936,8.0231" />
          <path
             id="path6760-7-1-2-2"
             style="color:#000000;display:inline;overflow:visible;visibility:visible;fill:#7e9eb3;fill-opacity:1;fill-rule:nonzero;stroke:none;stroke-width:0.970053;marker:none;enable-background:accumulate"
             transform="rotate(14.476928,5.3919538e-6,-1.1019894e-5)"
             d="m -682.10377,-655.81958 a 5.7261863,5.7261863 0 0 1 -5.72453,5.72619 5.7261863,5.7261863 0 0 1 -5.72784,-5.72288 5.7261863,5.7261863 0 0 1 5.72122,-5.72949 5.7261863,5.7261863 0 0 1 5.73115,5.71956" />
          <path
             id="path6760-4-7-6-70"
             style="color:#000000;display:inline;overflow:visible;visibility:visible;fill:#d9d142;fill-opacity:1;fill-rule:nonzero;stroke:none;stroke-width:0.970053;marker:none;enable-background:accumulate"
             transform="rotate(33.50389,1.5284659e-6,-5.1406731e-6)"
             d="m -863.54648,-373.40118 a 6.7820106,6.7820106 0 0 1 -6.78005,6.78201 6.7820106,6.7820106 0 0 1 -6.78397,-6.77809 6.7820106,6.7820106 0 0 1 6.77613,-6.78593 6.7820106,6.7820106 0 0 1 6.78788,6.77416" />
          <path
             id="path6801-5-9-7-9"
             d="m -534.71238,-827.32146 5.4574,5.9173"
             style="color:#000000;display:inline;overflow:visible;visibility:visible;fill:#f9875a;fill-opacity:1;stroke:none;stroke-width:1.34137;marker:none;enable-background:accumulate"
             transform="translate(-2.5836615e-6)" />
          <path
             d="m -831.37381,-754.6311 h 1.18079 v -9.33246 h -1.18079 z"
             style="font-style:normal;font-size:14.2263px;line-height:1.25;font-family:'Source Sans Pro';-inkscape-font-specification:'Source Sans Pro';letter-spacing:-0.106854px;fill:#b1b1b1"
             id="path4718" />
          <path
             d="m -827.73916,-754.6311 h 1.12387 v -4.87962 c 0,-0.98162 -0.0854,-1.97746 -0.15649,-2.9164 h 0.0569 l 1.01007,1.92055 3.38586,5.87547 h 1.22346 v -9.33246 h -1.12388 v 4.82272 c 0,0.98161 0.0854,2.03436 0.14226,2.9733 h -0.0569 l -1.01007,-1.93478 -3.37163,-5.86124 h -1.22346 z"
             style="font-style:normal;font-size:14.2263px;line-height:1.25;font-family:'Source Sans Pro';-inkscape-font-specification:'Source Sans Pro';letter-spacing:-0.106854px;fill:#b1b1b1"
             id="path4720" />
          <path
             d="m -818.64161,-754.6311 h 1.12388 v -4.87962 c 0,-0.98162 -0.0854,-1.97746 -0.15649,-2.9164 h 0.0569 l 1.01007,1.92055 3.38586,5.87547 h 1.22346 v -9.33246 h -1.12388 v 4.82272 c 0,0.98161 0.0854,2.03436 0.14227,2.9733 h -0.0569 l -1.01007,-1.93478 -3.37163,-5.86124 h -1.22346 z"
             style="font-style:normal;font-size:14.2263px;line-height:1.25;font-family:'Source Sans Pro';-inkscape-font-specification:'Source Sans Pro';letter-spacing:-0.106854px;fill:#b1b1b1"
             id="path4722" />
          <path
             d="m -806.10129,-754.46039 c 2.34733,0 3.99759,-1.87787 3.99759,-4.87962 0,-2.9733 -1.65026,-4.79426 -3.99759,-4.79426 -2.34734,0 -3.98337,1.80674 -3.98337,4.79426 0,3.00175 1.63603,4.87962 3.98337,4.87962 z m 0,-1.03852 c -1.66448,0 -2.75991,-1.50799 -2.75991,-3.8411 0,-2.31889 1.09543,-3.75574 2.75991,-3.75574 1.66447,0 2.7599,1.43685 2.7599,3.75574 0,2.33311 -1.09543,3.8411 -2.7599,3.8411 z"
             style="font-style:normal;font-size:14.2263px;line-height:1.25;font-family:'Source Sans Pro';-inkscape-font-specification:'Source Sans Pro';letter-spacing:-0.106854px;fill:#b1b1b1"
             id="path4724" />
          <path
             d="m -798.63977,-754.6311 h 1.37995 l 2.95907,-9.33246 h -1.20923 l -1.49376,5.03611 c -0.32721,1.10966 -0.55483,1.99169 -0.89626,3.08711 h -0.0569 c -0.35565,-1.09542 -0.56905,-1.97745 -0.91048,-3.08711 l -1.49376,-5.03611 h -1.26614 z"
             style="font-style:normal;font-size:14.2263px;line-height:1.25;font-family:'Source Sans Pro';-inkscape-font-specification:'Source Sans Pro';letter-spacing:-0.106854px;fill:#b1b1b1"
             id="path4726" />
          <path
             d="m -792.15988,-758.42953 0.44102,-1.42263 c 0.34143,-1.03852 0.64018,-2.06281 0.9247,-3.14401 h 0.0569 c 0.29875,1.0812 0.5975,2.10549 0.93894,3.14401 l 0.44101,1.42263 z m 3.98336,3.79843 h 1.26614 l -3.15823,-9.33246 h -1.33728 l -3.15823,9.33246 h 1.20923 l 0.89626,-2.84526 h 3.40008 z"
             style="font-style:normal;font-size:14.2263px;line-height:1.25;font-family:'Source Sans Pro';-inkscape-font-specification:'Source Sans Pro';letter-spacing:-0.106854px;fill:#b1b1b1"
             id="path4728" />
          <path
             d="m -784.32849,-754.6311 h 1.19501 v -8.33662 h 2.81681 v -0.99584 h -6.82863 v 0.99584 h 2.81681 z"
             style="font-style:normal;font-size:14.2263px;line-height:1.25;font-family:'Source Sans Pro';-inkscape-font-specification:'Source Sans Pro';letter-spacing:-0.106854px;fill:#b1b1b1"
             id="path4730" />
          <path
             d="m -778.74483,-754.6311 h 1.18078 v -9.33246 h -1.18078 z"
             style="font-style:normal;font-size:14.2263px;line-height:1.25;font-family:'Source Sans Pro';-inkscape-font-specification:'Source Sans Pro';letter-spacing:-0.106854px;fill:#b1b1b1"
             id="path4732" />
          <path
             d="m -771.66742,-754.46039 c 2.34733,0 3.99759,-1.87787 3.99759,-4.87962 0,-2.9733 -1.65026,-4.79426 -3.99759,-4.79426 -2.34734,0 -3.98337,1.80674 -3.98337,4.79426 0,3.00175 1.63603,4.87962 3.98337,4.87962 z m 0,-1.03852 c -1.66448,0 -2.75991,-1.50799 -2.75991,-3.8411 0,-2.31889 1.09543,-3.75574 2.75991,-3.75574 1.66447,0 2.7599,1.43685 2.7599,3.75574 0,2.33311 -1.09543,3.8411 -2.7599,3.8411 z"
             style="font-style:normal;font-size:14.2263px;line-height:1.25;font-family:'Source Sans Pro';-inkscape-font-specification:'Source Sans Pro';letter-spacing:-0.106854px;fill:#b1b1b1"
             id="path4734" />
          <path
             d="m -765.77079,-754.6311 h 1.12388 v -4.87962 c 0,-0.98162 -0.0854,-1.97746 -0.15649,-2.9164 h 0.0569 l 1.01006,1.92055 3.38586,5.87547 h 1.22346 v -9.33246 h -1.12387 v 4.82272 c 0,0.98161 0.0854,2.03436 0.14226,2.9733 h -0.0569 l -1.01006,-1.93478 -3.37164,-5.86124 h -1.22346 z"
             style="font-style:normal;font-size:14.2263px;line-height:1.25;font-family:'Source Sans Pro';-inkscape-font-specification:'Source Sans Pro';letter-spacing:-0.106854px;fill:#b1b1b1"
             id="path4736" />
          <path
             d="m -753.89471,-754.78393 v -7.08536 h 7.05758 v 7.08536 z"
             style="fill:#d6d6d6"
             id="path4738" />
          <path
             d="m -738.16196,-754.46039 c 2.34734,0 3.99759,-1.87787 3.99759,-4.87962 0,-2.9733 -1.65025,-4.79426 -3.99759,-4.79426 -2.34734,0 -3.98337,1.80674 -3.98337,4.79426 0,3.00175 1.63603,4.87962 3.98337,4.87962 z m 0,-1.03852 c -1.66448,0 -2.7599,-1.50799 -2.7599,-3.8411 0,-2.31889 1.09542,-3.75574 2.7599,-3.75574 1.66448,0 2.7599,1.43685 2.7599,3.75574 0,2.33311 -1.09542,3.8411 -2.7599,3.8411 z"
             style="font-style:normal;font-size:14.2263px;line-height:1.25;font-family:'Source Sans Pro';-inkscape-font-specification:'Source Sans Pro';letter-spacing:-0.106854px;fill:#b1b1b1"
             id="path4740" />
          <path
             d="m -732.308,-758.48643 c 0,3.00175 1.45108,4.02604 3.3574,4.02604 1.90633,0 3.34318,-1.02429 3.34318,-4.02604 v -5.47713 h -1.1381 v 5.50558 c 0,2.24776 -0.96739,2.95907 -2.20508,2.95907 -1.22346,0 -2.17662,-0.71131 -2.17662,-2.95907 v -5.50558 h -1.18078 z"
             style="font-style:normal;font-size:14.2263px;line-height:1.25;font-family:'Source Sans Pro';-inkscape-font-specification:'Source Sans Pro';letter-spacing:-0.106854px;fill:#b1b1b1"
             id="path4742" />
          <path
             d="m -721.26146,-754.6311 h 1.19501 v -8.33662 h 2.81681 v -0.99584 h -6.82862 v 0.99584 h 2.8168 z"
             style="font-style:normal;font-size:14.2263px;line-height:1.25;font-family:'Source Sans Pro';-inkscape-font-specification:'Source Sans Pro';letter-spacing:-0.106854px;fill:#b1b1b1"
             id="path4744" />
          <path
             d="m -715.6778,-754.6311 h 1.18078 v -9.33246 h -1.18078 z"
             style="font-style:normal;font-size:14.2263px;line-height:1.25;font-family:'Source Sans Pro';-inkscape-font-specification:'Source Sans Pro';letter-spacing:-0.106854px;fill:#b1b1b1"
             id="path4746" />
          <path
             d="m -712.04316,-754.6311 h 5.26373 v -1.01007 h -4.08294 v -8.32239 h -1.18079 z"
             style="font-style:normal;font-size:14.2263px;line-height:1.25;font-family:'Source Sans Pro';-inkscape-font-specification:'Source Sans Pro';letter-spacing:-0.106854px;fill:#b1b1b1"
             id="path4748" />
          <path
             d="m -706.23192,-755.84034 c 0.8109,0.83935 1.96323,1.37995 3.27205,1.37995 1.96323,0 3.17247,-1.18078 3.17247,-2.66032 0,-1.37995 -0.83936,-2.02013 -1.92055,-2.4896 l -1.32305,-0.56905 c -0.73977,-0.31298 -1.55067,-0.65441 -1.55067,-1.55067 0,-0.83935 0.69709,-1.36572 1.73561,-1.36572 0.86781,0 1.55067,0.34143 2.11972,0.88203 l 0.64018,-0.76822 c -0.66863,-0.68286 -1.65025,-1.15233 -2.7599,-1.15233 -1.69293,0 -2.93062,1.05274 -2.93062,2.47537 0,1.36573 1.01007,2.03437 1.8921,2.40425 l 1.33727,0.58328 c 0.88203,0.39833 1.55067,0.69709 1.55067,1.65025 0,0.91048 -0.72554,1.52221 -1.949,1.52221 -0.96739,0 -1.90633,-0.46947 -2.57496,-1.16655 z"
             style="font-style:normal;font-size:14.2263px;line-height:1.25;font-family:'Source Sans Pro';-inkscape-font-specification:'Source Sans Pro';letter-spacing:-0.106854px;fill:#b1b1b1"
             id="path4750" />
          <path
             d="m -695.28056,-754.78393 v -7.08536 h 7.05757 v 7.08536 z"
             style="fill:#d6d6d6"
             id="path4752" />
          <path
             d="m -682.99058,-754.6311 h 1.18078 v -3.69884 h 1.6787 c 2.04859,0 3.44277,-0.92471 3.44277,-2.88794 0,-2.04859 -1.37995,-2.74568 -3.44277,-2.74568 h -2.85948 z m 1.18078,-4.66623 v -3.71306 h 1.53644 c 1.60757,0 2.40424,0.44101 2.40424,1.79251 0,1.32305 -0.78244,1.92055 -2.40424,1.92055 z"
             style="font-style:normal;font-size:14.2263px;line-height:1.25;font-family:'Source Sans Pro';-inkscape-font-specification:'Source Sans Pro';letter-spacing:-0.106854px;fill:#b1b1b1"
             id="path4754" />
          <path
             d="m -673.72232,-763.01039 h 1.56489 c 1.45108,0 2.26198,0.44101 2.26198,1.66447 0,1.20924 -0.8109,1.80674 -2.26198,1.80674 h -1.56489 z m 5.27796,8.37929 -2.36157,-4.06873 c 1.26614,-0.31297 2.09127,-1.195 2.09127,-2.64609 0,-1.93477 -1.36573,-2.61764 -3.27205,-2.61764 h -2.91639 v 9.33246 h 1.18078 v -3.94069 h 1.69293 l 2.24775,3.94069 z"
             style="font-style:normal;font-size:14.2263px;line-height:1.25;font-family:'Source Sans Pro';-inkscape-font-specification:'Source Sans Pro';letter-spacing:-0.106854px;fill:#b1b1b1"
             id="path4756" />
          <path
             d="m -663.30172,-754.46039 c 2.34733,0 3.99759,-1.87787 3.99759,-4.87962 0,-2.9733 -1.65026,-4.79426 -3.99759,-4.79426 -2.34734,0 -3.98337,1.80674 -3.98337,4.79426 0,3.00175 1.63603,4.87962 3.98337,4.87962 z m 0,-1.03852 c -1.66448,0 -2.75991,-1.50799 -2.75991,-3.8411 0,-2.31889 1.09543,-3.75574 2.75991,-3.75574 1.66447,0 2.7599,1.43685 2.7599,3.75574 0,2.33311 -1.09543,3.8411 -2.7599,3.8411 z"
             style="font-style:normal;font-size:14.2263px;line-height:1.25;font-family:'Source Sans Pro';-inkscape-font-specification:'Source Sans Pro';letter-spacing:-0.106854px;fill:#b1b1b1"
             id="path4758" />
          <path
             d="m -658.8135,-755.95415 c 0.5406,0.98162 1.39418,1.49376 2.57496,1.49376 1.82097,0 2.57496,-1.30882 2.57496,-2.91639 v -6.58678 h -1.19501 v 6.47297 c 0,1.42263 -0.49792,1.99168 -1.49376,1.99168 -0.66864,0 -1.19501,-0.31298 -1.60757,-1.05274 z"
             style="font-style:normal;font-size:14.2263px;line-height:1.25;font-family:'Source Sans Pro';-inkscape-font-specification:'Source Sans Pro';letter-spacing:-0.106854px;fill:#b1b1b1"
             id="path4760" />
          <path
             d="m -651.25239,-754.6311 h 5.5198 v -1.01007 h -4.33902 v -3.38586 h 3.54235 v -1.01007 h -3.54235 v -2.93062 h 4.19676 v -0.99584 h -5.37754 z"
             style="font-style:normal;font-size:14.2263px;line-height:1.25;font-family:'Source Sans Pro';-inkscape-font-specification:'Source Sans Pro';letter-spacing:-0.106854px;fill:#b1b1b1"
             id="path4762" />
          <path
             d="m -641.92722,-754.6311 h 1.19501 v -8.33662 h 2.81681 v -0.99584 h -6.82863 v 0.99584 h 2.81681 z"
             style="font-style:normal;font-size:14.2263px;line-height:1.25;font-family:'Source Sans Pro';-inkscape-font-specification:'Source Sans Pro';letter-spacing:-0.106854px;fill:#b1b1b1"
             id="path4764" />
          <path
             d="m -637.58128,-755.84034 c 0.8109,0.83935 1.96323,1.37995 3.27205,1.37995 1.96323,0 3.17246,-1.18078 3.17246,-2.66032 0,-1.37995 -0.83935,-2.02013 -1.92055,-2.4896 l -1.32305,-0.56905 c -0.73976,-0.31298 -1.55066,-0.65441 -1.55066,-1.55067 0,-0.83935 0.69709,-1.36572 1.73561,-1.36572 0.8678,0 1.55066,0.34143 2.11972,0.88203 l 0.64018,-0.76822 c -0.66864,-0.68286 -1.65025,-1.15233 -2.7599,-1.15233 -1.69293,0 -2.93062,1.05274 -2.93062,2.47537 0,1.36573 1.01007,2.03437 1.8921,2.40425 l 1.33727,0.58328 c 0.88203,0.39833 1.55067,0.69709 1.55067,1.65025 0,0.91048 -0.72555,1.52221 -1.94901,1.52221 -0.96739,0 -1.90632,-0.46947 -2.57496,-1.16655 z"
             style="font-style:normal;font-size:14.2263px;line-height:1.25;font-family:'Source Sans Pro';-inkscape-font-specification:'Source Sans Pro';letter-spacing:-0.106854px;fill:#b1b1b1"
             id="path4766" />
          <path
             d="m -626.62993,-754.78393 v -7.08536 h 7.05758 v 7.08536 z"
             style="fill:#d6d6d6"
             id="path4768" />
          <path
             d="m -612.40517,-754.6311 h 1.19501 v -8.33662 h 2.8168 v -0.99584 h -6.82862 v 0.99584 h 2.81681 z"
             style="font-style:normal;font-size:14.2263px;line-height:1.25;font-family:'Source Sans Pro';-inkscape-font-specification:'Source Sans Pro';letter-spacing:-0.106854px;fill:#b1b1b1"
             id="path4770" />
          <path
             d="m -606.82152,-754.6311 h 5.51981 v -1.01007 h -4.33902 v -3.38586 h 3.54235 v -1.01007 h -3.54235 v -2.93062 h 4.19676 v -0.99584 h -5.37755 z"
             style="font-style:normal;font-size:14.2263px;line-height:1.25;font-family:'Source Sans Pro';-inkscape-font-specification:'Source Sans Pro';letter-spacing:-0.106854px;fill:#b1b1b1"
             id="path4772" />
          <path
             d="m -598.25034,-763.01039 h 1.5649 c 1.45108,0 2.26198,0.44101 2.26198,1.66447 0,1.20924 -0.8109,1.80674 -2.26198,1.80674 h -1.5649 z m 5.27796,8.37929 -2.36157,-4.06873 c 1.26615,-0.31297 2.09127,-1.195 2.09127,-2.64609 0,-1.93477 -1.36572,-2.61764 -3.27205,-2.61764 h -2.91639 v 9.33246 h 1.18078 v -3.94069 h 1.69293 l 2.24776,3.94069 z"
             style="font-style:normal;font-size:14.2263px;line-height:1.25;font-family:'Source Sans Pro';-inkscape-font-specification:'Source Sans Pro';letter-spacing:-0.106854px;fill:#b1b1b1"
             id="path4774" />
          <path
             d="m -590.09172,-763.01039 h 1.56489 c 1.45108,0 2.26198,0.44101 2.26198,1.66447 0,1.20924 -0.8109,1.80674 -2.26198,1.80674 h -1.56489 z m 5.27796,8.37929 -2.36157,-4.06873 c 1.26614,-0.31297 2.09127,-1.195 2.09127,-2.64609 0,-1.93477 -1.36573,-2.61764 -3.27205,-2.61764 h -2.91639 v 9.33246 h 1.18078 v -3.94069 h 1.69293 l 2.24775,3.94069 z"
             style="font-style:normal;font-size:14.2263px;line-height:1.25;font-family:'Source Sans Pro';-inkscape-font-specification:'Source Sans Pro';letter-spacing:-0.106854px;fill:#b1b1b1"
             id="path4776" />
          <path
             d="m -583.11389,-754.6311 h 1.18078 v -9.33246 h -1.18078 z"
             style="font-style:normal;font-size:14.2263px;line-height:1.25;font-family:'Source Sans Pro';-inkscape-font-specification:'Source Sans Pro';letter-spacing:-0.106854px;fill:#b1b1b1"
             id="path4778" />
          <path
             d="m -577.54447,-754.6311 h 1.19501 v -8.33662 h 2.81681 v -0.99584 h -6.82863 v 0.99584 h 2.81681 z"
             style="font-style:normal;font-size:14.2263px;line-height:1.25;font-family:'Source Sans Pro';-inkscape-font-specification:'Source Sans Pro';letter-spacing:-0.106854px;fill:#b1b1b1"
             id="path4780" />
          <path
             d="m -568.85948,-754.46039 c 2.34734,0 3.99759,-1.87787 3.99759,-4.87962 0,-2.9733 -1.65025,-4.79426 -3.99759,-4.79426 -2.34734,0 -3.98336,1.80674 -3.98336,4.79426 0,3.00175 1.63602,4.87962 3.98336,4.87962 z m 0,-1.03852 c -1.66448,0 -2.7599,-1.50799 -2.7599,-3.8411 0,-2.31889 1.09542,-3.75574 2.7599,-3.75574 1.66448,0 2.7599,1.43685 2.7599,3.75574 0,2.33311 -1.09542,3.8411 -2.7599,3.8411 z"
             style="font-style:normal;font-size:14.2263px;line-height:1.25;font-family:'Source Sans Pro';-inkscape-font-specification:'Source Sans Pro';letter-spacing:-0.106854px;fill:#b1b1b1"
             id="path4782" />
          <path
             d="m -562.96286,-754.6311 h 1.18078 v -9.33246 h -1.18078 z"
             style="font-style:normal;font-size:14.2263px;line-height:1.25;font-family:'Source Sans Pro';-inkscape-font-specification:'Source Sans Pro';letter-spacing:-0.106854px;fill:#b1b1b1"
             id="path4784" />
          <path
             d="m -558.14743,-763.01039 h 1.56489 c 1.45108,0 2.26198,0.44101 2.26198,1.66447 0,1.20924 -0.8109,1.80674 -2.26198,1.80674 h -1.56489 z m 5.27796,8.37929 -2.36157,-4.06873 c 1.26614,-0.31297 2.09127,-1.195 2.09127,-2.64609 0,-1.93477 -1.36573,-2.61764 -3.27205,-2.61764 h -2.91639 v 9.33246 h 1.18078 v -3.94069 h 1.69293 l 2.24775,3.94069 z"
             style="font-style:normal;font-size:14.2263px;line-height:1.25;font-family:'Source Sans Pro';-inkscape-font-specification:'Source Sans Pro';letter-spacing:-0.106854px;fill:#b1b1b1"
             id="path4786" />
          <path
             d="m -551.16958,-754.6311 h 5.5198 v -1.01007 h -4.33902 v -3.38586 h 3.54235 v -1.01007 h -3.54235 v -2.93062 h 4.19676 v -0.99584 h -5.37754 z"
             style="font-style:normal;font-size:14.2263px;line-height:1.25;font-family:'Source Sans Pro';-inkscape-font-specification:'Source Sans Pro';letter-spacing:-0.106854px;fill:#b1b1b1"
             id="path4788" />
          <path
             d="m -544.46207,-755.84034 c 0.8109,0.83935 1.96323,1.37995 3.27205,1.37995 1.96323,0 3.17247,-1.18078 3.17247,-2.66032 0,-1.37995 -0.83935,-2.02013 -1.92055,-2.4896 l -1.32305,-0.56905 c -0.73977,-0.31298 -1.55066,-0.65441 -1.55066,-1.55067 0,-0.83935 0.69708,-1.36572 1.7356,-1.36572 0.86781,0 1.55067,0.34143 2.11972,0.88203 l 0.64019,-0.76822 c -0.66864,-0.68286 -1.65025,-1.15233 -2.75991,-1.15233 -1.69293,0 -2.93061,1.05274 -2.93061,2.47537 0,1.36573 1.01006,2.03437 1.89209,2.40425 l 1.33728,0.58328 c 0.88203,0.39833 1.55066,0.69709 1.55066,1.65025 0,0.91048 -0.72554,1.52221 -1.949,1.52221 -0.96739,0 -1.90632,-0.46947 -2.57496,-1.16655 z"
             style="font-style:normal;font-size:14.2263px;line-height:1.25;font-family:'Source Sans Pro';-inkscape-font-specification:'Source Sans Pro';letter-spacing:-0.106854px;fill:#b1b1b1"
             id="path4790" />
        </g>
      </g>
    </g>
  </g>
</svg>
