<?xml version="1.0" encoding="UTF-8" standalone="no"?>
<!-- Created with Inkscape (http://www.inkscape.org/) -->

<svg
   xmlns:dc="http://purl.org/dc/elements/1.1/"
   xmlns:cc="http://creativecommons.org/ns#"
   xmlns:rdf="http://www.w3.org/1999/02/22-rdf-syntax-ns#"
   xmlns:svg="http://www.w3.org/2000/svg"
   xmlns="http://www.w3.org/2000/svg"
   xmlns:sodipodi="http://sodipodi.sourceforge.net/DTD/sodipodi-0.dtd"
   xmlns:inkscape="http://www.inkscape.org/namespaces/inkscape"
   width="210mm"
   height="297mm"
   viewBox="0 0 210 297"
   version="1.1"
   id="svg5512"
   inkscape:version="0.92.3 (2405546, 2018-03-11)"
   sodipodi:docname="LOGO.svg">
  <defs
     id="defs5506" />
  <sodipodi:namedview
     id="base"
     pagecolor="#ffffff"
     bordercolor="#666666"
     borderopacity="1.0"
     inkscape:pageopacity="0.0"
     inkscape:pageshadow="2"
     inkscape:zoom="0.35"
     inkscape:cx="-230"
     inkscape:cy="560"
     inkscape:document-units="mm"
     inkscape:current-layer="layer1"
     showgrid="false"
     inkscape:window-width="2560"
     inkscape:window-height="1361"
     inkscape:window-x="-9"
     inkscape:window-y="-9"
     inkscape:window-maximized="1" />
  <metadata
     id="metadata5509">
    <rdf:RDF>
      <cc:Work
         rdf:about="">
        <dc:format>image/svg+xml</dc:format>
        <dc:type
           rdf:resource="http://purl.org/dc/dcmitype/StillImage" />
        <dc:title></dc:title>
      </cc:Work>
    </rdf:RDF>
  </metadata>
  <g
     inkscape:label="Calque 1"
     inkscape:groupmode="layer"
     id="layer1">
    <path
       d="m 67.168523,133.21594 v 27.11696 l 0.007,0.57079 h 3.81846 l 0.0663,-5.59787 0.066,-5.59612 4.93748,-0.0744 c 5.29731,-0.0797 6.00851,-0.15699 7.76252,-0.84455 2.1717,-0.8516 3.57752,-2.395 4.43477,-4.87715 0.32773,-0.94368 0.36513,-1.23472 0.36759,-2.83033 0.004,-1.6122 -0.03,-1.87678 -0.36371,-2.83034 -0.92604,-2.65148 -2.69804,-4.32435 -5.28602,-4.99004 -1.60408,-0.41205 -3.22862,-0.4893 -9.54864,-0.44909 l -6.25616,0.0385 z"
       style="fill:#064478;fill-opacity:1;fill-rule:nonzero;stroke:none;stroke-width:0.35277775"
       id="path1017"
       inkscape:connector-curvature="0" />
    <path
       d="m 71.124923,145.90924 c -0.0384,-0.0981 -0.0522,-2.28212 -0.0342,-4.85352 l 0.0356,-4.67431 4.6743,0.0109 c 3.14078,0.007 4.91843,0.0635 5.41585,0.1711 1.39594,0.30163 2.4638,1.26471 3.05928,2.75872 0.35419,0.89006 0.33479,2.73403 -0.0388,3.72886 -0.53445,1.42346 -1.7279,2.35938 -3.51649,2.76155 -0.35419,0.0801 -2.62537,0.17356 -5.08246,0.20955 -3.6629,0.0536 -4.45665,0.0346 -4.51309,-0.11289 z"
       style="fill:#ffffff;fill-opacity:1;fill-rule:nonzero;stroke:none;stroke-width:0.35277775"
       id="path1019"
       inkscape:connector-curvature="0" />
    <path
       d="m 25.319203,161.32244 c 4.06788,-0.5581 7.13387,-2.95451 8.15657,-6.37893 0.36371,-1.21955 0.31679,-3.16547 -0.10478,-4.35998 -0.81738,-2.30539 -2.55481,-3.90806 -5.35093,-4.92935 -0.62971,-0.2286 -2.74496,-0.81986 -4.70041,-1.31339 -5.06448,-1.27459 -6.0579,-1.69616 -6.73312,-2.84692 -1.00612,-1.71697 -0.17638,-3.93841 1.8341,-4.91278 1.13806,-0.55245 2.27647,-0.71226 4.48698,-0.63395 2.05881,0.073 2.90759,0.28964 3.95075,1.00754 1.08727,0.74824 1.64254,1.64253 2.04894,3.30447 l 0.20814,0.85584 1.38924,-0.0441 c 0.76482,-0.0247 1.5942,-0.0868 1.84361,-0.13935 l 0.45332,-0.0949 -0.0205,-0.84878 c -0.0512,-2.0574 -1.48555,-4.52967 -3.37502,-5.81272 -2.13995,-1.45238 -5.41126,-2.15512 -8.5217,-1.8288 -3.86398,0.40393 -6.55532,1.95298 -7.79957,4.48839 -0.60783,1.23755 -0.75388,1.87678 -0.75917,3.31153 -0.007,2.782 1.45238,4.93324 4.27743,6.3059 1.11865,0.54434 3.01766,1.12713 6.45442,1.98437 3.55141,0.88476 4.63444,1.30774 5.61022,2.18969 0.70556,0.63782 1.05975,1.36983 1.13947,2.35232 0.0896,1.12148 -0.21625,1.98155 -1.02235,2.86209 -0.74577,0.81597 -1.68275,1.31339 -3.19581,1.6965 -1.4538,0.36654 -4.29401,0.29069 -5.69277,-0.15451 -1.29399,-0.40923 -2.33575,-0.9906 -3.06458,-1.71027 -0.95921,-0.9465 -1.30352,-1.68381 -1.80129,-3.87209 l -0.0854,-0.37747 -1.53917,0.0963 c -2.06446,0.12807 -2.13607,0.15982 -2.13607,0.9645 0,0.90558 0.42863,2.46945 0.97437,3.55142 1.47991,2.93934 4.3808,4.7819 8.31109,5.27791 1.32821,0.16792 3.57047,0.17215 4.76392,0.01 z"
       style="fill:#064478;fill-opacity:1;fill-rule:nonzero;stroke:none;stroke-width:0.35277775"
       id="path1021"
       inkscape:connector-curvature="0" />
    <path
       d="m 156.34721,161.22754 c 4.34904,-0.75812 7.53216,-3.56799 9.00253,-7.94596 0.48649,-1.44569 0.48649,-1.44569 -1.56421,-1.95686 -1.4411,-0.36089 -1.79529,-0.41064 -1.92617,-0.27129 -0.0882,0.0949 -0.29104,0.58702 -0.45085,1.09255 -0.91898,2.91465 -2.82081,4.84117 -5.46947,5.5372 -1.08161,0.28364 -3.31399,0.28505 -4.41254,0 -3.18735,-0.82409 -5.1756,-2.95592 -6.15139,-6.5913 -0.33478,-1.24424 -0.35418,-1.4799 -0.35418,-4.28024 0,-2.8 0.0194,-3.03565 0.35418,-4.28025 0.78811,-2.93793 2.15653,-4.78155 4.34093,-5.85505 1.4979,-0.73449 2.79048,-0.97861 4.70853,-0.89041 2.30963,0.10618 3.59551,0.6424 4.89091,2.04081 0.70273,0.76095 1.51447,2.13466 1.8161,3.08011 0.0854,0.26458 0.2286,0.51117 0.32385,0.54716 0.25224,0.0963 3.41066,-0.68369 3.62409,-0.89712 0.15875,-0.1584 0.15169,-0.27305 -0.0508,-0.81738 -1.44428,-3.87915 -4.24709,-6.36764 -8.15234,-7.24006 -1.31058,-0.29351 -4.29155,-0.28399 -5.67761,0.0166 -4.83835,1.0474 -8.07685,3.90807 -9.59273,8.47196 -1.43016,4.30248 -1.0347,9.84496 0.99236,13.92377 1.18357,2.37984 2.88431,4.14373 5.04754,5.23663 2.18017,1.10103 5.91609,1.56387 8.70127,1.0788 v 0 z"
       style="fill:#064478;fill-opacity:1;fill-rule:nonzero;stroke:none;stroke-width:0.35277775"
       id="path1023"
       inkscape:connector-curvature="0" />
    <path
       d="m 183.22711,161.25788 c 2.57281,-0.41769 5.04084,-1.6002 6.84742,-3.28119 2.79893,-2.60314 4.26508,-6.38033 4.27461,-11.00912 0.0166,-6.32107 -2.51637,-10.91565 -7.35719,-13.34911 -2.82786,-1.42205 -6.78709,-1.76389 -10.04605,-0.8696 -4.49791,1.23472 -7.85601,4.826 -9.02617,9.65165 -1.01141,4.17689 -0.59373,8.53157 1.15641,12.00819 2.56857,5.10434 8.17315,7.81791 14.15097,6.84777 v 0 z"
       style="fill:#064478;fill-opacity:1;fill-rule:nonzero;stroke:none;stroke-width:0.35277775"
       id="path1025"
       inkscape:connector-curvature="0" />
    <path
       d="m 179.69651,157.88991 c -2.12231,-0.22754 -3.61597,-0.97014 -5.26697,-2.61549 -1.95404,-1.94734 -2.72698,-3.97157 -2.84692,-7.45136 -0.10901,-3.16936 0.23566,-5.20207 1.23331,-7.28698 0.98108,-2.04505 2.79188,-3.56764 5.14562,-4.32964 1.50213,-0.48507 3.66959,-0.56515 5.15267,-0.19156 3.47098,0.87912 5.6829,3.1817 6.70525,6.98394 0.31432,1.16558 0.34184,1.48272 0.34184,3.90243 0,2.42675 -0.0261,2.73543 -0.34325,3.91512 -0.653,2.42675 -2.00202,4.42206 -3.828,5.66243 -1.67851,1.13806 -3.99485,1.6577 -6.29355,1.41111 z"
       style="fill:#ffffff;fill-opacity:1;fill-rule:nonzero;stroke:none;stroke-width:0.35277775"
       id="path1027"
       inkscape:connector-curvature="0" />
    <path
       d="m 94.634383,154.72303 0.066,-6.12387 3.04412,0.004 3.045527,0.004 0.97014,0.48366 c 1.66758,0.8255 2.73262,2.14982 6.49464,8.07402 1.14794,1.80799 2.17735,3.39125 2.28776,3.51684 0.17639,0.20391 0.4752,0.23001 2.54918,0.23001 1.87571,0 2.35091,-0.036 2.35091,-0.17497 0,-0.26459 -5.17984,-8.31109 -6.03285,-9.3719 -0.98955,-1.22943 -1.91135,-2.11949 -2.75626,-2.65994 -0.3817,-0.24377 -0.69462,-0.46284 -0.69462,-0.48753 0,-0.0236 0.43004,-0.14605 0.95533,-0.26882 0.52493,-0.12559 1.51694,-0.496 2.20345,-0.8255 2.02988,-0.97578 3.26036,-2.42252 3.89819,-4.59034 0.30197,-1.01812 0.30621,-2.99297 0.008,-4.12433 -0.54433,-2.07962 -1.95403,-3.88479 -3.66006,-4.68524 -1.90853,-0.8957 -2.28494,-0.92745 -10.911417,-0.92745 h -7.70467 l -0.0342,13.89345 c -0.018,7.64256 -0.004,13.97034 0.0303,14.06277 0.048,0.12805 0.51259,0.1598 1.94416,0.13088 l 1.87854,-0.036 z"
       style="fill:#064478;fill-opacity:1;fill-rule:nonzero;stroke:none;stroke-width:0.35277775"
       id="path1029"
       inkscape:connector-curvature="0" />
    <path
       d="m 94.634383,140.56501 v -4.41114 h 4.97064 c 3.766257,0 5.184067,0.0483 5.848347,0.18874 1.60126,0.33902 2.60597,1.03364 3.25085,2.24649 0.30727,0.57855 0.34995,0.80751 0.34995,1.90853 0,1.10913 -0.0413,1.32961 -0.35983,1.93604 -0.44767,0.84878 -1.12289,1.51447 -1.91241,1.88666 -1.23225,0.57996 -2.03129,0.65016 -7.241817,0.6544 h -4.90573 v -4.41255 z"
       style="fill:#ffffff;fill-opacity:1;fill-rule:nonzero;stroke:none;stroke-width:0.35277775"
       id="path1031"
       inkscape:connector-curvature="0" />
    <path
       d="m 137.63199,159.1645 v -1.71168 l -8.52734,-0.0328 -8.53017,-0.0346 0.0346,-4.57517 0.0342,-4.57623 7.6401,-0.0649 7.63694,-0.0663 v -3.42442 l -7.67292,-0.0328 -7.67433,-0.0346 0.036,-4.1148 0.0342,-4.1148 8.16645,-0.0649 8.16469,-0.066 v -3.42441 l -10.05946,-0.0346 c -7.32296,-0.0233 -10.1092,0.007 -10.24043,0.11571 -0.14711,0.12418 -0.17886,2.46415 -0.17886,13.88392 0,7.55437 0.037,13.82853 0.0797,13.94565 0.073,0.18874 1.09009,0.20531 10.56958,0.17498 l 10.48702,-0.0346 z"
       style="fill:#064478;fill-opacity:1;fill-rule:nonzero;stroke:none;stroke-width:0.35277775"
       id="path1033"
       inkscape:connector-curvature="0" />
    <path
       d="m 47.166373,121.50266 11.07264,-0.16263 1.899,-1.37654 c 16.31597,-11.82511 32.08761,-26.612854 45.228577,-42.409183 16.98025,-20.409958 31.27869,-44.361806 40.56662,-67.9467636 1.16028,-2.946399 1.18639,-3.028949 0.96061,-3.02648 -0.0952,0 -0.49494,0.578908 -0.88759,1.283053 -2.04082,3.6600686 -4.69759,8.2860436 -6.1087,10.6302526 -18.25095,30.312782 -42.638127,57.265709 -71.273807,78.772807 -10.70292,8.036634 -22.39715,15.516584 -34.30763,21.941014 -1.41217,0.762 -2.87867,1.54199 -3.25896,1.73355 -0.3803,0.19156 -0.6918,0.43709 -0.6918,0.54434 0,0.24271 1.27882,0.24412 16.80104,0.0166 z"
       style="fill:#064478;fill-opacity:1;fill-rule:nonzero;stroke:none;stroke-width:0.35277775"
       id="path1035"
       inkscape:connector-curvature="0" />
    <path
       d="m 129.66557,121.09908 c 10.33251,-1.1617 19.14101,-5.4998 26.87426,-13.23622 3.92888,-3.92889 6.80614,-7.974547 9.20397,-12.942364 2.20486,-4.570941 3.56517,-9.148937 4.29401,-14.460005 0.11289,-0.832205 0.23989,-2.966863 0.28257,-4.743099 0.17498,-7.510285 -0.88618,-12.676716 -3.9123,-19.048589 -2.1209,-4.468987 -5.23523,-8.849781 -8.88154,-12.497504 -2.32727,-2.327627 -4.11762,-3.786717 -6.92044,-5.65009 -3.29494,-2.186868 -6.42443,-3.77966 -9.71232,-4.944179 -1.01565,-0.359833 -1.24989,-0.402521 -1.42205,-0.26035 -0.28822,0.239536 -0.18768,0.680509 0.2025,0.880534 0.18167,0.09348 1.04034,0.468487 1.90993,0.833612 4.10104,1.722615 7.67962,4.158898 10.99962,7.492296 3.04941,3.06211 4.73886,5.423958 6.6488,9.293577 1.76953,3.587043 2.84445,6.947958 3.42865,10.733617 0.28927,1.884891 0.39969,6.293553 0.20249,8.182678 -0.20532,1.967797 -0.85725,5.989109 -1.276,7.864475 -1.09149,4.894792 -3.61315,10.420702 -6.50452,14.252927 -4.9029,6.500284 -11.17987,11.076874 -18.69722,13.633094 -0.90664,0.30869 -1.68804,0.63924 -1.73601,0.7359 -0.0469,0.0949 -0.14888,0.88865 -0.22755,1.76248 -0.0797,0.88759 -0.29069,2.10961 -0.4766,2.76578 -0.40816,1.4291 -1.32574,3.38173 -2.09762,4.46334 -0.76623,1.07209 -3.0039,3.18876 -3.97016,3.75391 -1.51165,0.88194 -1.77623,1.06927 -1.69897,1.19451 0.11006,0.18062 1.56809,0.15592 3.4865,-0.0603 z"
       style="fill:#064478;fill-opacity:1;fill-rule:nonzero;stroke:none;stroke-width:0.35277775"
       id="path1037"
       inkscape:connector-curvature="0" />
    <path
       d="m 121.30227,120.61507 c 5.06412,-0.81844 9.45056,-4.89726 10.81757,-10.06228 0.30868,-1.1617 0.34996,-1.56422 0.34996,-3.423 0,-1.84115 -0.0427,-2.26696 -0.3362,-3.37362 -1.0541,-3.968751 -3.8862,-7.393165 -7.50499,-9.07274 -3.37609,-1.567038 -7.72513,-1.637242 -11.20317,-0.180621 -1.21849,0.509762 -3.33234,1.946979 -4.312,2.931229 -1.60267,1.610783 -2.96545,3.981102 -3.56764,6.205012 -0.26317,0.97437 -0.30198,1.4291 -0.30198,3.49074 0,2.06163 0.0388,2.51636 0.30198,3.48932 0.84596,3.12808 2.9598,6.11682 5.52979,7.82426 3.12843,2.07539 6.45195,2.78236 10.22668,2.1717 z"
       style="fill:#064478;fill-opacity:1;fill-rule:nonzero;stroke:none;stroke-width:0.35277775"
       id="path1039"
       inkscape:connector-curvature="0" />
    <path
       d="m 105.05649,120.36319 c 2.03412,-0.20003 4.24428,-0.54046 4.39315,-0.67945 0.084,-0.0773 -0.25083,-0.47131 -0.93698,-1.0982 -3.30588,-3.02225 -5.0546,-7.00899 -5.0546,-11.52208 0,-5.48569 2.68852,-10.314516 7.30744,-13.12298 5.98487,-3.640667 13.57947,-2.844094 18.71803,1.962504 2.27507,2.127602 4.09293,5.578126 4.52685,8.591906 0.19015,1.31762 0.28928,1.6771 0.48225,1.74201 0.0843,0.0275 0.72777,-0.59125 1.43051,-1.37266 11.4307,-12.721869 15.13099,-30.537146 9.69433,-46.670024 -2.13713,-6.342947 -5.45677,-11.922832 -10.18222,-17.112544 -0.72496,-0.796573 -1.39312,-1.446742 -1.48696,-1.446742 -0.0935,0 -0.72072,1.02235 -1.39312,2.272242 -7.96643,14.809962 -18.0273,29.352169 -29.22129,42.235612 -8.179857,9.414579 -18.533177,19.481096 -27.697287,26.929646 -0.70696,0.57468 -1.28411,1.12289 -1.28411,1.22097 0,0.40357 4.43442,2.94745 7.41927,4.2552 4.72405,2.06728 9.59944,3.31435 15.10066,3.86009 1.09537,0.10866 6.938427,0.0755 8.184077,-0.0455 z"
       style="fill:#058047;fill-opacity:1;fill-rule:nonzero;stroke:none;stroke-width:0.35277775"
       id="path1041"
       inkscape:connector-curvature="0" />
    <path
       d="m 64.296913,97.50283 c 23.0131,-17.359136 43.404007,-37.714061 60.662597,-60.557831 1.14653,-1.515885 2.06411,-2.840215 2.04364,-2.943577 -0.0526,-0.261763 -2.92135,-1.978731 -5.22569,-3.128081 -4.93607,-2.45992 -10.10638,-3.988153 -15.88453,-4.693709 -2.23238,-0.271286 -8.498407,-0.232833 -10.732197,0.06632 -3.44911,0.462845 -5.95313,1.02235 -8.99019,2.014714 -7.42633,2.419703 -13.68143,6.333421 -19.26096,12.048066 -2.67617,2.742142 -4.55013,5.121982 -6.41491,8.149521 -8.60425,13.976348 -9.35532,31.302323 -1.9939,45.997633 1.26647,2.52589 2.79188,4.969229 3.10338,4.969229 0.0787,0 1.28976,-0.865364 2.69276,-1.922287 z"
       style="fill:#058047;fill-opacity:1;fill-rule:nonzero;stroke:none;stroke-width:0.35277775"
       id="path1043"
       inkscape:connector-curvature="0" />
    <path
       d="m 50.202373,130.84174 c 8.763,0 15.86654,7.10354 15.86654,15.86654 0,8.76299 -7.10354,15.86546 -15.86654,15.86546 -8.76158,0 -15.86547,-7.10247 -15.86547,-15.86546 -10e-4,-8.763 7.10389,-15.86654 15.86547,-15.86654 z"
       style="fill:#064478;fill-opacity:1;fill-rule:nonzero;stroke:none;stroke-width:0.35277775"
       id="path1045"
       inkscape:connector-curvature="0" />
    <path
       d="m 64.075013,146.70828 c 0,7.66056 -6.21101,13.87156 -13.87264,13.87156 -7.66056,0 -13.87157,-6.211 -13.87157,-13.87156 0,-7.66163 6.21101,-13.87264 13.87157,-13.87264 7.66163,0 13.87264,6.21101 13.87264,13.87264 z"
       style="fill:#ffffff;fill-opacity:1;fill-rule:nonzero;stroke:none;stroke-width:0.35277775"
       id="path1047"
       inkscape:connector-curvature="0" />
  </g>
</svg>
