<?xml version="1.0" encoding="UTF-8" standalone="no"?>
<!-- Created with Inkscape (http://www.inkscape.org/) -->

<svg
   xmlns:dc="http://purl.org/dc/elements/1.1/"
   xmlns:cc="http://creativecommons.org/ns#"
   xmlns:rdf="http://www.w3.org/1999/02/22-rdf-syntax-ns#"
   xmlns:svg="http://www.w3.org/2000/svg"
   xmlns="http://www.w3.org/2000/svg"
   xmlns:sodipodi="http://sodipodi.sourceforge.net/DTD/sodipodi-0.dtd"
   xmlns:inkscape="http://www.inkscape.org/namespaces/inkscape"
   width="34.000042mm"
   height="28.970179mm"
   viewBox="0 0 34.000042 28.970178"
   version="1.1"
   id="svg5512"
   inkscape:version="0.92.5 (2060ec1f9f, 2020-04-08)"
   sodipodi:docname="sopreco.svg">
  <defs
     id="defs5506" />
  <sodipodi:namedview
     id="base"
     pagecolor="#ffffff"
     bordercolor="#666666"
     borderopacity="1.0"
     inkscape:pageopacity="0.0"
     inkscape:pageshadow="2"
     inkscape:zoom="3.959798"
     inkscape:cx="31.486616"
     inkscape:cy="26.064434"
     inkscape:document-units="mm"
     inkscape:current-layer="layer1"
     showgrid="false"
     inkscape:window-width="1848"
     inkscape:window-height="1016"
     inkscape:window-x="1077"
     inkscape:window-y="1227"
     inkscape:window-maximized="1"
     fit-margin-top="0"
     fit-margin-left="0"
     fit-margin-right="0"
     fit-margin-bottom="0" />
  <metadata
     id="metadata5509">
    <rdf:RDF>
      <cc:Work
         rdf:about="">
        <dc:format>image/svg+xml</dc:format>
        <dc:type
           rdf:resource="http://purl.org/dc/dcmitype/StillImage" />
        <dc:title></dc:title>
      </cc:Work>
    </rdf:RDF>
  </metadata>
  <g
     inkscape:label="Calque 1"
     inkscape:groupmode="layer"
     id="layer1"
     transform="translate(-11.269746,-137.50382)">
    <path
       d="m 21.650615,161.02187 v 5.03595 l 7.68e-4,0.10571 h 0.709172 l 0.01221,-1.03955 0.01206,-1.03921 0.91696,-0.0158 c 0.983777,-0.0158 1.115857,-0.0294 1.441607,-0.15694 0.403307,-0.15818 0.66439,-0.44483 0.823589,-0.90569 0.06089,-0.1753 0.06778,-0.22939 0.06823,-0.5257 7.71e-4,-0.29931 -0.0057,-0.34852 -0.06757,-0.52563 -0.171985,-0.49243 -0.50107,-0.803 -0.98169,-0.92673 -0.297899,-0.0762 -0.599603,-0.0912 -1.773312,-0.083 l -1.161856,0.0156 z"
       style="fill:#064478;fill-opacity:1;fill-rule:nonzero;stroke:none;stroke-width:0.06551561"
       id="path1017"
       inkscape:connector-curvature="0" />
    <path
       d="m 22.385375,163.37916 c -0.0071,-0.0175 -0.0096,-0.42389 -0.0063,-0.90139 l 0.0068,-0.86799 0.86808,0.0158 c 0.583282,0.0108 0.913416,0.0156 1.005797,0.0317 0.259239,0.0558 0.457562,0.23486 0.568154,0.51232 0.06577,0.16528 0.06217,0.50777 -0.0071,0.6925 -0.09927,0.26441 -0.320899,0.43817 -0.653064,0.51291 -0.06578,0.0156 -0.487566,0.0315 -0.943882,0.0388 -0.680245,0.0158 -0.827656,0.0158 -0.838137,-0.0212 z"
       style="fill:#ffffff;fill-opacity:1;fill-rule:nonzero;stroke:none;stroke-width:0.06551561"
       id="path1019"
       inkscape:connector-curvature="0" />
    <path
       d="m 13.878626,166.24159 c 0.755458,-0.10431 1.324861,-0.54868 1.51479,-1.18462 0.06757,-0.2265 0.05887,-0.58791 -0.01944,-0.80977 -0.151795,-0.42808 -0.474459,-0.72575 -0.993742,-0.91544 -0.116945,-0.0423 -0.50978,-0.15207 -0.87293,-0.24395 -0.940539,-0.23653 -1.125035,-0.3149 -1.250427,-0.52872 -0.186852,-0.31873 -0.03278,-0.73129 0.340609,-0.91232 0.211363,-0.10293 0.422778,-0.1323 0.833301,-0.11761 0.382348,0.0156 0.539972,0.0542 0.733709,0.18717 0.20192,0.13878 0.305038,0.30499 0.380512,0.61368 l 0.03865,0.15898 0.258001,-0.0159 c 0.142043,-0.0158 0.296062,-0.0167 0.342386,-0.0263 l 0.08421,-0.0178 -0.0036,-0.15761 c -0.0094,-0.38211 -0.275884,-0.84124 -0.62678,-1.07948 -0.397425,-0.2697 -1.004949,-0.4002 -1.582602,-0.33968 -0.717599,0.0748 -1.217405,0.36275 -1.448482,0.83361 -0.11288,0.22977 -0.140018,0.34856 -0.140992,0.61498 -7.65e-4,0.51666 0.26973,0.91616 0.794382,1.1711 0.207747,0.10061 0.560417,0.2093 1.198672,0.3685 0.659546,0.16436 0.860681,0.24294 1.041887,0.40664 0.13107,0.11838 0.196811,0.25449 0.211623,0.43687 0.01671,0.20828 -0.04018,0.36803 -0.189874,0.53162 -0.138488,0.15146 -0.312503,0.24377 -0.593502,0.31497 -0.269979,0.0683 -0.797455,0.0539 -1.057224,-0.0283 -0.2403,-0.076 -0.433788,-0.18395 -0.569128,-0.31762 -0.178142,-0.17581 -0.242084,-0.31272 -0.334519,-0.71915 l -0.01582,-0.0703 -0.285848,0.0178 c -0.383405,0.0235 -0.396702,0.0298 -0.396702,0.17912 0,0.16816 0.07959,0.4586 0.180954,0.65952 0.274837,0.54587 0.813569,0.88808 1.543472,0.98024 0.246672,0.0315 0.663084,0.0315 0.884734,0.0156 z"
       style="fill:#064478;fill-opacity:1;fill-rule:nonzero;stroke:none;stroke-width:0.06551561"
       id="path1021"
       inkscape:connector-curvature="0" />
    <path
       d="m 38.21232,166.2241 c 0.807653,-0.14095 1.398813,-0.66275 1.671937,-1.47576 0.09032,-0.26844 0.09032,-0.26844 -0.290558,-0.36343 -0.267619,-0.0663 -0.333426,-0.0762 -0.357702,-0.0505 -0.01674,0.0173 -0.05408,0.10864 -0.08373,0.20295 -0.170699,0.54125 -0.523885,0.89897 -1.015795,1.02825 -0.200855,0.0529 -0.615477,0.0529 -0.819497,0 -0.591898,-0.153 -0.961143,-0.54887 -1.142382,-1.22411 -0.06216,-0.23101 -0.06576,-0.27464 -0.06576,-0.79483 0,-0.52008 0.0034,-0.5638 0.06576,-0.79495 0.146401,-0.54558 0.40053,-0.88802 0.806205,-1.08734 0.278162,-0.13646 0.518202,-0.18159 0.874425,-0.16536 0.428941,0.0195 0.667732,0.11931 0.90832,0.37899 0.130514,0.14141 0.281251,0.39643 0.337273,0.57204 0.01604,0.0496 0.04248,0.095 0.06016,0.10153 0.04686,0.0172 0.633401,-0.12688 0.67303,-0.1666 0.0295,-0.0298 0.02825,-0.051 -0.0094,-0.15192 -0.268235,-0.7204 -0.788734,-1.18241 -1.514019,-1.34453 -0.243388,-0.0541 -0.797003,-0.0529 -1.054422,0.0156 -0.898524,0.19447 -1.499971,0.72573 -1.78147,1.57328 -0.265635,0.79908 -0.19217,1.82843 0.184286,2.58584 0.219806,0.442 0.535657,0.76964 0.937405,0.97251 0.404885,0.20448 1.098698,0.29044 1.615938,0.20038 v 0 z"
       style="fill:#064478;fill-opacity:1;fill-rule:nonzero;stroke:none;stroke-width:0.06551561"
       id="path1023"
       inkscape:connector-curvature="0" />
    <path
       d="m 43.204292,166.22956 c 0.477796,-0.0776 0.936137,-0.29709 1.271605,-0.60922 0.519828,-0.48348 0.792147,-1.18494 0.793872,-2.04463 0.0036,-1.17388 -0.467312,-2.02714 -1.366297,-2.47905 -0.52519,-0.26418 -1.260467,-0.32767 -1.86569,-0.16155 -0.835329,0.22926 -1.458973,0.89617 -1.676295,1.79238 -0.187826,0.77571 -0.110284,1.58443 0.214758,2.23025 0.477012,0.94786 1.517823,1.45181 2.628047,1.27166 v 0 z"
       style="fill:#064478;fill-opacity:1;fill-rule:nonzero;stroke:none;stroke-width:0.06551561"
       id="path1025"
       inkscape:connector-curvature="0" />
    <path
       d="m 42.548598,165.60417 c -0.394138,-0.042 -0.671526,-0.18018 -0.978143,-0.48574 -0.362897,-0.36165 -0.506393,-0.73761 -0.528715,-1.38381 -0.02025,-0.58859 0.04378,-0.96612 0.229058,-1.3533 0.18219,-0.37983 0.518459,-0.66255 0.955598,-0.80409 0.278972,-0.0899 0.681472,-0.10447 0.956922,-0.0362 0.644595,0.16323 1.055395,0.59089 1.245251,1.29695 0.05836,0.21656 0.06347,0.27537 0.06347,0.72477 0,0.45067 -0.0046,0.50804 -0.06374,0.72706 -0.121287,0.45072 -0.371781,0.8213 -0.710881,1.05173 -0.311735,0.21127 -0.741898,0.30773 -1.168812,0.26196 z"
       style="fill:#ffffff;fill-opacity:1;fill-rule:nonzero;stroke:none;stroke-width:0.06551561"
       id="path1027"
       inkscape:connector-curvature="0" />
    <path
       d="m 26.751403,165.01603 0.01205,-1.1373 0.56533,0.006 0.5656,0.006 0.180176,0.0898 c 0.309683,0.15316 0.507463,0.3993 1.206141,1.49947 0.213182,0.33578 0.404364,0.62985 0.424868,0.65317 0.03278,0.0379 0.08818,0.0428 0.473409,0.0428 0.348346,0 0.436624,-0.0158 0.436624,-0.0322 0,-0.0493 -0.961983,-1.54349 -1.120422,-1.74049 -0.183738,-0.22833 -0.354938,-0.3936 -0.511862,-0.49402 -0.07084,-0.045 -0.128999,-0.0858 -0.128999,-0.0907 0,-0.0158 0.07989,-0.0275 0.177425,-0.0505 0.09749,-0.0236 0.28173,-0.0919 0.409198,-0.1533 0.376986,-0.18127 0.605484,-0.44992 0.72398,-0.85254 0.05608,-0.18906 0.05684,-0.55578 7.64e-4,-0.76593 -0.101058,-0.38626 -0.362864,-0.72143 -0.679689,-0.87009 -0.354465,-0.16637 -0.42435,-0.17229 -2.026421,-0.17229 H 26.02879 l -0.0063,2.58027 c -0.0026,1.41933 -7.63e-4,2.5944 0.0059,2.61156 0.0088,0.0233 0.09519,0.0301 0.361051,0.0243 l 0.348876,-0.0156 z"
       style="fill:#064478;fill-opacity:1;fill-rule:nonzero;stroke:none;stroke-width:0.06551561"
       id="path1029"
       inkscape:connector-curvature="0" />
    <path
       d="m 26.751403,162.38671 v -0.8192 h 0.923118 c 0.699443,0 0.962745,0.0158 1.086118,0.0356 0.297377,0.0629 0.483946,0.19201 0.603718,0.4171 0.05706,0.10788 0.06499,0.15007 0.06499,0.35455 0,0.20591 -0.0079,0.2469 -0.06681,0.35945 -0.08313,0.15775 -0.208535,0.28134 -0.355171,0.35041 -0.228842,0.10802 -0.37723,0.12085 -1.344903,0.12147 H 26.75141 v -0.81946 z"
       style="fill:#ffffff;fill-opacity:1;fill-rule:nonzero;stroke:none;stroke-width:0.06551561"
       id="path1031"
       inkscape:connector-curvature="0" />
    <path
       d="M 34.736644,165.84089 V 165.523 l -1.583641,-0.0158 -1.584161,-0.0156 0.0063,-0.84971 0.0063,-0.84984 1.418863,-0.0159 1.418288,-0.0158 v -0.63587 l -1.424954,-0.0159 -1.425242,-0.0158 0.007,-0.76415 0.0063,-0.76424 1.516611,-0.0158 1.516293,-0.0159 v -0.63537 l -1.868153,-0.0158 c -1.359998,-0.0158 -1.877449,0.0108 -1.901801,0.0215 -0.02737,0.023 -0.03323,0.45762 -0.03323,2.57841 0,1.40298 0.007,2.56811 0.01468,2.58992 0.01345,0.0356 0.202465,0.038 1.962925,0.0322 l 1.947608,-0.0158 z"
       style="fill:#064478;fill-opacity:1;fill-rule:nonzero;stroke:none;stroke-width:0.06551561"
       id="path1033"
       inkscape:connector-curvature="0" />
    <path
       d="m 17.935944,158.84657 2.056339,-0.0305 0.352673,-0.25559 c 3.030097,-2.19614 5.959102,-4.94232 8.399566,-7.87599 3.153462,-3.79037 5.808869,-8.23852 7.53377,-12.61861 0.215467,-0.54718 0.220331,-0.56251 0.178409,-0.56205 -0.01756,0 -0.092,0.10772 -0.164839,0.23831 -0.379045,0.67969 -0.872416,1.53878 -1.134477,1.9742 -3.389447,5.6294 -7.918482,10.63492 -13.236516,14.62916 -1.987678,1.49249 -4.159454,2.88162 -6.371394,4.07476 -0.262259,0.14157 -0.534611,0.2863 -0.605236,0.32194 -0.07063,0.0362 -0.12849,0.0811 -0.12849,0.10045 0,0.0448 0.237495,0.0451 3.120178,0.0158 z"
       style="fill:#064478;fill-opacity:1;fill-rule:nonzero;stroke:none;stroke-width:0.06551561"
       id="path1035"
       inkscape:connector-curvature="0" />
    <path
       d="m 33.257173,158.77152 c 1.918882,-0.2157 3.554751,-1.02129 4.990918,-2.4581 0.729648,-0.72958 1.263971,-1.48085 1.709282,-2.40352 0.409464,-0.84884 0.66212,-1.69916 0.797485,-2.68545 0.02103,-0.15464 0.04449,-0.55103 0.05247,-0.88088 0.03255,-1.39473 -0.164558,-2.35421 -0.726533,-3.53752 -0.393934,-0.83005 -0.972249,-1.64355 -1.649439,-2.32098 -0.432207,-0.43227 -0.764693,-0.70328 -1.285217,-1.04934 -0.611907,-0.40611 -1.193105,-0.7019 -1.803702,-0.91815 -0.188623,-0.066 -0.232127,-0.0748 -0.264106,-0.0487 -0.05353,0.0447 -0.03485,0.12642 0.03763,0.16356 0.03375,0.0171 0.193216,0.087 0.354712,0.15495 0.761626,0.31984 1.426216,0.77231 2.042782,1.39142 0.566322,0.56868 0.880054,1.00728 1.234766,1.7259 0.328611,0.66623 0.528231,1.29035 0.636736,1.99336 0.05372,0.35007 0.0742,1.1688 0.03763,1.51967 -0.03813,0.36542 -0.159193,1.11225 -0.236982,1.46069 -0.202699,0.9089 -0.671006,1.93516 -1.207971,2.64687 -0.910517,1.2071 -2.076254,2.05707 -3.472348,2.53185 -0.168346,0.0573 -0.31347,0.11838 -0.322367,0.13677 -0.0085,0.0172 -0.0276,0.16502 -0.04228,0.32726 -0.01468,0.1648 -0.05398,0.39175 -0.08857,0.51361 -0.07581,0.26549 -0.246207,0.6281 -0.38957,0.82889 -0.142275,0.19914 -0.557854,0.59228 -0.737303,0.69721 -0.280742,0.16379 -0.329884,0.19853 -0.315512,0.22182 0.02056,0.0325 0.2912,0.0288 0.647474,-0.0159 z"
       style="fill:#064478;fill-opacity:1;fill-rule:nonzero;stroke:none;stroke-width:0.06551561"
       id="path1037"
       inkscape:connector-curvature="0" />
    <path
       d="m 31.703992,158.68171 c 0.940471,-0.15176 1.755098,-0.90948 2.008944,-1.86864 0.05737,-0.2159 0.06499,-0.29065 0.06499,-0.63579 0,-0.34184 -0.0079,-0.42099 -0.06242,-0.62646 -0.195765,-0.73717 -0.72171,-1.37309 -1.393783,-1.685 -0.626978,-0.29095 -1.434657,-0.30401 -2.080586,-0.0325 -0.226275,0.0949 -0.618866,0.36151 -0.800788,0.54429 -0.297644,0.29908 -0.550722,0.73936 -0.662546,1.15237 -0.04885,0.18093 -0.0561,0.26531 -0.0561,0.6483 0,0.38285 0.0071,0.46729 0.0561,0.64798 0.157092,0.58094 0.549658,1.13605 1.026934,1.4531 0.580999,0.38543 1.19823,0.51665 1.899245,0.40326 z"
       style="fill:#064478;fill-opacity:1;fill-rule:nonzero;stroke:none;stroke-width:0.06551561"
       id="path1039"
       inkscape:connector-curvature="0" />
    <path
       d="m 28.686924,158.63498 c 0.377762,-0.0362 0.788219,-0.1003 0.815883,-0.12611 0.01576,-0.0159 -0.04657,-0.0873 -0.174034,-0.20389 -0.613944,-0.5613 -0.938689,-1.3017 -0.938689,-2.13991 0,-1.0187 0.49929,-1.9155 1.357076,-2.43698 1.111496,-0.67618 2.521907,-0.5283 3.476172,0.36439 0.422545,0.39508 0.76013,1.03601 0.840724,1.59564 0.03531,0.24473 0.05377,0.31145 0.08953,0.32346 0.01576,0.0159 0.13515,-0.10926 0.26567,-0.25491 2.122824,-2.3626 2.810043,-5.67118 1.800371,-8.6672 -0.396856,-1.17796 -1.013393,-2.21424 -1.890977,-3.17805 -0.13464,-0.1479 -0.25874,-0.26866 -0.276148,-0.26866 -0.01723,0 -0.133837,0.18986 -0.258716,0.42199 -1.47948,2.75046 -3.347911,5.45107 -5.426803,7.84383 -1.51911,1.74825 -3.441858,3.61773 -5.143756,5.00107 -0.131286,0.10679 -0.238475,0.20854 -0.238475,0.22678 0,0.0748 0.823527,0.54737 1.377856,0.79028 0.877319,0.38378 1.782745,0.61542 2.804399,0.71686 0.20342,0.0196 1.28856,0.0156 1.519892,-0.0159 z"
       style="fill:#058047;fill-opacity:1;fill-rule:nonzero;stroke:none;stroke-width:0.06551561"
       id="path1041"
       inkscape:connector-curvature="0" />
    <path
       d="m 21.11732,154.38944 c 4.273857,-3.22384 8.060716,-7.00406 11.265863,-11.24633 0.212961,-0.28156 0.38334,-0.52757 0.379569,-0.54676 -0.0097,-0.0488 -0.542554,-0.36737 -0.970502,-0.58091 -0.916708,-0.45677 -1.87689,-0.74066 -2.94998,-0.87164 -0.414573,-0.051 -1.578273,-0.0434 -1.993122,0.0159 -0.640544,0.0858 -1.105573,0.18975 -1.669596,0.37419 -1.379175,0.44928 -2.540825,1.17614 -3.577023,2.23734 -0.497001,0.50938 -0.845019,0.95132 -1.191336,1.51361 -1.597923,2.59556 -1.737411,5.81326 -0.370295,8.54237 0.235205,0.46906 0.518492,0.92289 0.576337,0.92289 0.01453,0 0.23953,-0.16081 0.500085,-0.35702 z"
       style="fill:#058047;fill-opacity:1;fill-rule:nonzero;stroke:none;stroke-width:0.06551561"
       id="path1043"
       inkscape:connector-curvature="0" />
    <path
       d="m 18.499773,160.58093 c 1.62741,0 2.946635,1.31924 2.946635,2.94667 0,1.6274 -1.319225,2.9464 -2.946635,2.9464 -1.627139,0 -2.946434,-1.319 -2.946434,-2.9464 -1.89e-4,-1.62743 1.319295,-2.94667 2.946434,-2.94667 z"
       style="fill:#064478;fill-opacity:1;fill-rule:nonzero;stroke:none;stroke-width:0.06551561"
       id="path1045"
       inkscape:connector-curvature="0" />
    <path
       d="m 21.076113,163.5276 c 0,1.42258 -1.153469,2.57605 -2.57634,2.57605 -1.422674,0 -2.57614,-1.15347 -2.57614,-2.57605 0,-1.42289 1.153466,-2.57628 2.57614,-2.57628 1.422871,0 2.57634,1.15339 2.57634,2.57628 z"
       style="fill:#ffffff;fill-opacity:1;fill-rule:nonzero;stroke:none;stroke-width:0.06551561"
       id="path1047"
       inkscape:connector-curvature="0" />
  </g>
</svg>
