<?xml version="1.0" encoding="UTF-8" standalone="no"?>
<!-- Generator: Adobe Illustrator 27.2.0, SVG Export Plug-In . SVG Version: 6.00 Build 0)  -->

<svg
   version="1.1"
   id="Calque_1"
   x="0px"
   y="0px"
   viewBox="0 0 67.755997 23.35874"
   xml:space="preserve"
   sodipodi:docname="sopreco-small.svg"
   width="67.755997mm"
   height="23.35874mm"
   inkscape:version="1.2.2 (732a01da63, 2022-12-09)"
   xmlns:inkscape="http://www.inkscape.org/namespaces/inkscape"
   xmlns:sodipodi="http://sodipodi.sourceforge.net/DTD/sodipodi-0.dtd"
   xmlns="http://www.w3.org/2000/svg"
   xmlns:svg="http://www.w3.org/2000/svg"><defs
   id="defs23" /><sodipodi:namedview
   id="namedview21"
   pagecolor="#ffffff"
   bordercolor="#666666"
   borderopacity="1.0"
   inkscape:showpageshadow="2"
   inkscape:pageopacity="0.0"
   inkscape:pagecheckerboard="0"
   inkscape:deskcolor="#d1d1d1"
   showgrid="false"
   inkscape:zoom="1.3365803"
   inkscape:cx="287.30035"
   inkscape:cy="88.285004"
   inkscape:window-width="1920"
   inkscape:window-height="1000"
   inkscape:window-x="-11"
   inkscape:window-y="-11"
   inkscape:window-maximized="1"
   inkscape:current-layer="Calque_1"
   inkscape:document-units="mm" />
<style
   type="text/css"
   id="style2">
	.st0{fill:#004489;}
	.st1{fill:#FE000C;}
</style>
<g
   id="g18"
   transform="matrix(0.125,0,0,0.125,1.7277608,0.25706149)">
	<path
   class="st0"
   d="m 48.53,88.4 h 14.05 c 0.29,4.22 3.79,3.79 13.54,3.79 13.76,0 16.38,-1.75 16.38,-4.44 0,-3.71 -3.79,-4.08 -6.41,-4.15 L 69.13,83.16 c -12.38,-0.29 -20.6,-0.95 -20.6,-13.25 0,-12.3 8.88,-15.8 26.79,-15.8 19.95,0 29.12,1.6 29.7,15.29 H 91.05 c -0.51,-4.51 -5.46,-4.37 -15.72,-4.37 -10.19,0 -12.67,1.53 -12.67,4.15 0,3.71 2.91,4.44 6.92,4.51 l 14.78,0.36 c 12.3,0.29 22.35,-0.29 22.35,13.47 0,13.4 -10.99,15.58 -30.58,15.58 -22.21,0 -27.3,-2.55 -27.6,-14.7 z"
   id="path4" />
	<path
   class="st0"
   d="m 111.14,78.57 c 0,-17.47 8.37,-24.46 30.5,-24.46 22.13,0 30.5,6.99 30.5,24.46 0,17.47 -8.37,24.53 -30.5,24.53 -22.13,0 -30.5,-7.06 -30.5,-24.53 z m 30.51,12.52 c 12.52,0 16.67,-3.2 16.67,-12.52 0,-9.25 -4.15,-12.45 -16.67,-12.45 -12.52,0 -16.67,3.2 -16.67,12.45 -0.01,9.32 4.14,12.52 16.67,12.52 z"
   id="path6" />
	<path
   class="st0"
   d="m 191.37,87.38 v 14.85 h -13.1 V 54.98 h 32.32 c 15.21,0 22.64,3.28 22.64,16.89 0,13.61 -7.43,15.51 -21.91,15.51 z m 19.22,-10.19 c 6.19,0 9.17,-0.44 9.17,-5.17 0,-5.46 -2.98,-5.17 -9.17,-5.17 h -19.22 v 10.34 z"
   id="path8" />
	<path
   class="st0"
   d="m 300.79,54.98 h 47.32 V 66.85 H 313.9 v 6.7 h 31.16 V 83.67 H 313.9 v 6.7 h 34.94 v 11.87 h -48.05 z"
   id="path10" />
	<path
   class="st0"
   d="m 353.25,78.57 c 0,-17.47 8.37,-24.46 30.5,-24.46 21.4,0 29.34,5.1 30.28,19.29 h -14.12 c -0.95,-5.24 -4.8,-7.28 -16.16,-7.28 -12.52,0 -16.67,3.2 -16.67,12.45 0,9.32 4.15,12.52 16.67,12.52 11.43,0 15.21,-2.04 16.16,-7.35 h 14.12 c -0.95,14.2 -8.81,19.36 -30.28,19.36 -22.13,0 -30.5,-7.06 -30.5,-24.53 z"
   id="path12" />
	<path
   class="st0"
   d="m 418.63,78.57 c 0,-17.47 8.37,-24.46 30.5,-24.46 22.13,0 30.5,6.99 30.5,24.46 0,17.47 -8.37,24.53 -30.5,24.53 -22.13,0 -30.5,-7.06 -30.5,-24.53 z m 30.5,12.52 c 12.52,0 16.67,-3.2 16.67,-12.52 0,-9.25 -4.15,-12.45 -16.67,-12.45 -12.52,0 -16.67,3.2 -16.67,12.45 0,9.32 4.15,12.52 16.67,12.52 z"
   id="path14" />
	<path
   class="st1"
   d="m 414.03,109.31 c 0,0 -112.56,-0.03 -112.61,-0.04 -2.49,0.01 -4.93,-1.27 -6.32,-3.38 -1.52,-2.04 -1.31,-11.16 -1.31,-11.16 0,-5.75 -1.82,-9.32 -6.19,-11.21 3.71,-1.67 6.19,-4.95 6.19,-10.92 0,-14.34 -7.43,-17.62 -22.64,-17.62 h -32.32 c 0,0 -0.01,46.45 -0.01,46.45 0.21,4.16 -3.44,7.94 -7.59,7.84 -5.39,0 -120.09,0.04 -120.09,0.04 v 13.1 c 0,0 119.73,0.04 119.73,0.04 6.96,0.15 13.83,-3.45 17.62,-9.26 2.31,-3.44 3.52,-7.61 3.47,-11.75 l -0.03,-12.6 h 19.95 c 6.84,0 8.81,1.89 8.81,6.84 v 6.55 h 0.01 c 0.12,10.32 8.76,19.56 19.15,20.15 6.11,0.17 114.17,0.03 114.17,0.03 v -13.1 z M 271.16,78.64 H 251.94 V 66.85 h 19.22 c 6.19,0 9.17,0.44 9.17,5.9 0,5.46 -2.99,5.89 -9.17,5.89 z"
   id="path16" />
</g>
</svg>
