<?xml version="1.0" encoding="utf-8"?>
<!-- Generator: Adobe Illustrator 27.2.0, SVG Export Plug-In . SVG Version: 6.00 Build 0)  -->
<svg version="1.1" id="Calque_1" xmlns="http://www.w3.org/2000/svg" xmlns:xlink="http://www.w3.org/1999/xlink" x="0px" y="0px"
	 viewBox="0 0 528.17 176.57" style="enable-background:new 0 0 528.17 176.57;" xml:space="preserve">
<style type="text/css">
	.st0{fill:#004489;}
	.st1{fill:#FE000C;}
</style>
<g>
	<path class="st0" d="M48.53,88.4h14.05c0.29,4.22,3.79,3.79,13.54,3.79c13.76,0,16.38-1.75,16.38-4.44c0-3.71-3.79-4.08-6.41-4.15
		l-16.96-0.44c-12.38-0.29-20.6-0.95-20.6-13.25c0-12.3,8.88-15.8,26.79-15.8c19.95,0,29.12,1.6,29.7,15.29H91.05
		c-0.51-4.51-5.46-4.37-15.72-4.37c-10.19,0-12.67,1.53-12.67,4.15c0,3.71,2.91,4.44,6.92,4.51l14.78,0.36
		c12.3,0.29,22.35-0.29,22.35,13.47c0,13.4-10.99,15.58-30.58,15.58C53.92,103.1,48.83,100.55,48.53,88.4z"/>
	<path class="st0" d="M111.14,78.57c0-17.47,8.37-24.46,30.5-24.46c22.13,0,30.5,6.99,30.5,24.46c0,17.47-8.37,24.53-30.5,24.53
		C119.51,103.1,111.14,96.04,111.14,78.57z M141.65,91.09c12.52,0,16.67-3.2,16.67-12.52c0-9.25-4.15-12.45-16.67-12.45
		s-16.67,3.2-16.67,12.45C124.97,87.89,129.12,91.09,141.65,91.09z"/>
	<path class="st0" d="M191.37,87.38v14.85h-13.1V54.98h32.32c15.21,0,22.64,3.28,22.64,16.89c0,13.61-7.43,15.51-21.91,15.51H191.37
		z M210.59,77.19c6.19,0,9.17-0.44,9.17-5.17c0-5.46-2.98-5.17-9.17-5.17h-19.22v10.34H210.59z"/>
	<path class="st0" d="M300.79,54.98h47.32v11.87H313.9v6.7h31.16v10.12H313.9v6.7h34.94v11.87h-48.05V54.98z"/>
	<path class="st0" d="M353.25,78.57c0-17.47,8.37-24.46,30.5-24.46c21.4,0,29.34,5.1,30.28,19.29h-14.12
		c-0.95-5.24-4.8-7.28-16.16-7.28c-12.52,0-16.67,3.2-16.67,12.45c0,9.32,4.15,12.52,16.67,12.52c11.43,0,15.21-2.04,16.16-7.35
		h14.12c-0.95,14.2-8.81,19.36-30.28,19.36C361.62,103.1,353.25,96.04,353.25,78.57z"/>
	<path class="st0" d="M418.63,78.57c0-17.47,8.37-24.46,30.5-24.46s30.5,6.99,30.5,24.46c0,17.47-8.37,24.53-30.5,24.53
		S418.63,96.04,418.63,78.57z M449.13,91.09c12.52,0,16.67-3.2,16.67-12.52c0-9.25-4.15-12.45-16.67-12.45s-16.67,3.2-16.67,12.45
		C432.46,87.89,436.61,91.09,449.13,91.09z"/>
	<path class="st1" d="M414.03,109.31c0,0-112.56-0.03-112.61-0.04c-2.49,0.01-4.93-1.27-6.32-3.38c-1.52-2.04-1.31-11.16-1.31-11.16
		c0-5.75-1.82-9.32-6.19-11.21c3.71-1.67,6.19-4.95,6.19-10.92c0-14.34-7.43-17.62-22.64-17.62h-32.32c0,0-0.01,46.45-0.01,46.45
		c0.21,4.16-3.44,7.94-7.59,7.84c-5.39,0-120.09,0.04-120.09,0.04v13.1c0,0,119.73,0.04,119.73,0.04
		c6.96,0.15,13.83-3.45,17.62-9.26c2.31-3.44,3.52-7.61,3.47-11.75l-0.03-12.6h19.95c6.84,0,8.81,1.89,8.81,6.84v6.55h0.01
		c0.12,10.32,8.76,19.56,19.15,20.15c6.11,0.17,114.17,0.03,114.17,0.03V109.31z M271.16,78.64h-19.22V66.85h19.22
		c6.19,0,9.17,0.44,9.17,5.9S277.34,78.64,271.16,78.64z"/>
</g>
</svg>
